<svg width="398" height="305" viewBox="0 0 398 305" xmlns="http://www.w3.org/2000/svg"><title>asu_university_vert_rgb</title><g transform="translate(-1 -1)"><g transform="translate(0 179.31)"><path d="M30.62 1.655l17.104 46.62H35.31l-2.207-7.447H16l-2.207 7.448H1.38l17.38-46.62H30.62zm-6.344 11.31c-.552 2.483-1.38 4.966-1.931 7.173-1.104 3.586-2.759 9.103-3.862 12.414h11.862l-6.07-19.586zm36.138 4.414c2.207-1.93 4.69-3.31 9.93-3.862v9.104l-3.31.551c-4.965.828-6.344 1.656-6.344 6.07v19.586H50.483V13.793h9.93v3.586zM73.93 1.655h9.931v8h-9.931v-8zm0 12.138h9.931v34.759h-9.931V13.793z"/><path d="M90.2068966 13.7931034L119.724138 13.7931034 119.724138 21.5172414 101.241379 40.2758621 119.724138 40.2758621 119.724138 48.2758621 88.2758621 48.2758621 88.2758621 40.5517241 107.034483 21.5172414 90.4827586 21.5172414 90.4827586 13.7931034z"/><path d="M158.897 31.172c0 8.828-4.966 18.207-18.483 18.207-9.655 0-18.483-5.517-18.483-18.207 0-10.482 6.62-19.034 19.862-18.206 13.793.551 17.104 11.862 17.104 18.206zm-25.38-6.896c-1.38 1.93-1.655 4.414-1.655 6.62 0 5.518 2.759 10.207 8.276 10.207 5.517 0 8.276-4.413 8.276-9.93 0-3.863-.828-6.897-2.759-8.552-2.207-1.931-4.414-1.931-6.069-1.931-2.758.551-4.69 1.379-6.069 3.586zm38.897-7.173c1.103-1.103 1.655-1.93 3.31-2.758 1.655-.552 3.862-1.38 6.345-1.38 1.931 0 4.414.276 6.069 1.38 3.586 1.93 4.69 4.965 4.69 10.483v23.724H182.62V28.966c0-3.035 0-4.138-.552-5.242-.828-1.93-2.483-2.758-4.69-2.758-5.241 0-5.241 4.413-5.241 8.551v18.759H161.93V14.069h10.207l.276 3.034zm25.655 6.621c.276-2.483.552-5.241 3.586-7.724 3.31-2.483 7.173-3.034 11.31-3.034 4.138 0 14.621 1.103 14.621 9.93v20.138c0 3.587.276 4.138 1.104 5.518h-9.931v-3.31c-2.483 1.93-5.518 4.137-10.483 4.137-8 0-11.31-5.793-11.31-10.482 0-5.518 4.413-8.828 7.172-9.931 2.759-1.104 9.38-2.483 13.517-3.31v-1.932c0-1.655-.276-4.138-3.862-4.138-4.414 0-4.965 2.759-5.241 4.138h-10.483zm12.69 10.483c-1.656.552-4.414 1.655-4.414 4.414 0 1.655 1.38 3.586 3.862 3.586 1.38 0 2.483-.552 3.586-1.104 3.31-2.206 3.586-5.24 3.586-8.827l-6.62 1.93zm39.172.276c1.103 1.38 2.207 2.483 4.414 3.586 3.034 1.655 6.345 2.207 9.103 2.207 4.69 0 8.552-2.207 8.552-5.517 0-3.587-4.69-4.414-8.276-4.69-2.483-.276-5.241-.552-7.724-1.103-2.759-.552-12.69-2.76-12.69-12.69C243.31 4.138 254.07.552 262.07.552c10.759 0 16.552 5.241 20.69 8.827l-8.552 6.07c-1.38-1.38-2.759-2.76-4.69-3.863-1.655-.827-4.69-1.93-7.724-1.93-4.69 0-6.896 2.758-6.896 4.965 0 3.586 3.862 4.138 6.069 4.413 4.965.552 11.586 1.932 14.344 2.76 5.242 1.93 8 6.068 8 11.585 0 3.31-1.379 7.173-3.586 9.931-4.138 4.966-11.034 6.345-17.655 6.345-13.241 0-18.483-6.069-21.241-9.38l9.103-5.792zm38.897-30.62h10.206V14.62h6.621v6.345h-6.62v15.448c0 2.207 0 3.862 2.758 3.862h3.586v8c-2.207.276-3.586.552-5.241.552-3.586 0-7.448-.276-9.655-3.31-1.38-1.932-1.38-4.415-1.38-7.725V21.241h-4.965v-6.344h4.965V3.862h-.275zm19.862 19.861c.276-2.483.551-5.241 3.586-7.724 3.31-2.483 7.172-3.034 11.31-3.034 4.138 0 14.62 1.103 14.62 9.93v20.138c0 3.587.277 4.138 1.104 5.518h-9.93v-3.31c-2.483 1.93-5.518 4.137-10.483 4.137-8 0-11.31-5.793-11.31-10.482 0-5.518 4.413-8.828 7.172-9.931 2.758-1.104 9.379-2.483 13.517-3.31v-1.932c0-1.655-.276-4.138-3.862-4.138-4.414 0-4.966 2.759-5.242 4.138H308.69zm12.965 10.483c-1.655.552-4.414 1.655-4.414 4.414 0 1.655 1.38 3.586 3.862 3.586 1.38 0 2.483-.552 3.587-1.104 3.31-2.206 3.586-5.24 3.586-8.827l-6.62 1.93zm23.448-30.345h10.207v10.759h6.621v6.345h-6.62v15.448c0 2.207 0 3.862 2.758 3.862h3.586v8c-2.207.276-3.586.552-5.241.552-3.586 0-7.448-.276-9.655-3.31-1.38-1.932-1.38-4.415-1.38-7.725V21.241h-4.965v-6.344h4.965V3.862h-.276zm52.966 35.862c-1.103 1.655-2.483 3.586-4.138 5.242-3.034 2.758-7.448 4.965-12.965 4.965-10.207 0-17.38-6.62-17.38-17.931 0-8.276 4.138-19.034 17.655-19.034 1.931 0 8 .275 12.414 4.965 4.414 4.966 4.69 11.586 4.966 15.448h-24.828c0 4.414 2.483 8.552 8 8.552 5.517 0 7.448-3.586 8.828-6.069l7.448 3.862zM387.862 26.76c-.276-1.38-.552-3.31-1.931-4.966-1.38-1.38-3.31-1.93-4.965-1.93-2.483 0-4.138 1.103-5.242 2.206-1.38 1.655-1.655 3.034-1.93 4.69h14.068z"/><g><path d="M41.103 67.862V94.07c0 4.414 0 9.103-2.758 13.241-4.966 8-15.448 8.552-17.38 8.552-3.586 0-7.724-.828-10.758-2.483-9.104-4.69-9.104-12.965-8.828-19.31V67.862h11.862v29.241c0 2.483 0 4.414.828 5.794 1.38 2.482 4.69 3.31 7.448 3.31 8 0 8-5.517 8-9.104V68.138l11.586-.276zM56.552 83.31c1.103-1.103 1.655-1.93 3.31-2.758 1.655-.552 3.862-1.38 6.345-1.38 1.93 0 4.414.276 6.069 1.38 3.586 1.93 4.69 4.965 4.69 10.482v23.725H66.759V95.172c0-3.034 0-4.138-.552-5.241-.828-1.931-2.483-2.759-4.69-2.759-5.241 0-5.241 4.414-5.241 8.552v18.759H46.069V80h10.207v3.31h.276zm25.93-15.448h9.932v8h-9.931v-8zm0 12.138h9.932v34.759h-9.931V80zm12.966 0h10.759c4.138 15.448 4.965 18.483 6.069 25.103 1.38-7.724 1.655-8.551 3.586-16.551L118.07 80h10.483l-11.31 34.483h-10.76L95.449 80zm67.586 25.931c-1.103 1.655-2.482 3.586-4.137 5.241-3.035 2.759-7.449 4.966-12.966 4.966-10.207 0-17.38-6.62-17.38-17.931 0-8.276 4.139-19.035 17.656-19.035 1.93 0 8 .276 12.414 4.966 4.413 4.965 4.69 11.586 4.965 15.448H138.76c0 4.414 2.482 8.552 8 8.552 5.517 0 7.448-3.586 8.827-6.069l7.448 3.862zm-10.206-12.965c-.276-1.38-.552-3.31-1.931-4.966-1.38-1.38-3.31-1.931-4.966-1.931-2.483 0-4.138 1.103-5.241 2.207-1.38 1.655-1.656 3.034-1.931 4.69h14.069zm24.551-9.38c2.207-1.93 4.69-3.31 9.931-3.862v9.104l-3.31.551c-4.966.828-6.345 1.655-6.345 6.07v19.585h-10.207V80h9.931v3.586zm16.276 19.31c2.759 2.76 6.345 4.69 9.931 4.69 2.483 0 6.07-.827 6.07-3.31 0-1.104-.828-1.655-1.38-1.931-1.655-.828-3.862-1.104-5.793-1.38-1.655-.275-3.035-.551-4.69-1.103-2.207-.552-4.138-1.38-5.793-3.034-1.655-1.656-2.483-3.862-2.483-6.621 0-5.793 4.966-11.586 14.62-11.586 8.277 0 12.966 3.586 15.45 5.241l-6.346 5.793c-3.31-2.483-6.344-3.31-8.551-3.31-3.862 0-4.966 1.655-4.966 2.483 0 1.93 2.207 2.482 5.517 3.034 6.897 1.38 14.897 3.035 14.897 11.31 0 8.276-8.276 12.138-16.276 12.138-9.655 0-14.62-4.69-16.828-6.62l6.621-5.793zm29.793-35.034h9.931v8h-9.93v-8zm0 12.138h9.931v34.759h-9.93V80zm18.759-9.931h10.207v10.759h6.62v6.344h-6.62v15.449c0 2.207 0 3.862 2.758 3.862h3.587v8c-2.207.276-3.587.551-5.242.551-3.586 0-7.448-.275-9.655-3.31-1.38-1.93-1.38-4.414-1.38-7.724V87.448h-5.24v-6.345h4.965V70.07zM294.345 80l-12.138 37.241c-.828 2.207-1.655 4.414-3.31 6.345-2.483 2.483-4.69 2.759-7.449 2.759H264v-8h3.586c1.655 0 4.138 0 4.138-2.483 0-.828-.276-1.655-.552-2.483L260.966 80h10.758l5.793 24.828L283.31 80h11.035z"/></g></g><path d="M335.724 138.207c-4.965-5.241-4.69-10.759-4.69-10.759V1.103H283.31V102.07c-.551 9.655-9.93 11.862-15.172 11.862-7.448-.276-11.586-4.414-11.586-11.586V1.103H209.93h-32.828c-25.379 0-49.379 3.863-57.655 25.104l-4.69-18.759c-1.103-3.862-5.24-6.345-9.103-6.345H22.621c-1.104 0-1.655.276-1.104 1.104 0 0 2.207 2.207 6.345 6.896 5.793 6.621 3.586 15.173 3.586 15.173L1.103 146.206h44.414l6.345-26.758h42.759l6.62 26.759h58.207c24 0 43.31-2.483 52.966-17.38 7.172 13.518 22.62 20.139 49.93 17.656 9.38-.828 18.76-5.242 22.897-12.414l1.931 5.793c1.656 3.586 4.966 6.069 9.38 6.069h44.69c1.103.276 1.655 0 .827-.828 0 0-2.483-2.758-6.345-6.896zM110.621 27.31l8 4.69c-.276 1.38-.552 3.034-.828 4.414l-8.276-7.724c-.827-.828.276-1.931 1.104-1.38zm-8 9.931l14.896 6.07c0 1.655 0 4.137.276 6.068l-16-10.482c-.827-.552-.276-1.931.828-1.656zm-6.07 11.587l22.07 4.965c.551 2.759 1.655 5.517 2.758 7.724L96 50.483c-.828-.552-.552-1.931.552-1.655zM58.484 92.966l14.62-59.587L88 92.966H58.483zm122.207 19.862c-4.138 3.862-12.138 5.793-20.69 4.965-4.966-.552-9.931-3.034-9.931-3.034l-17.931 22.069c-.828.827-2.207 0-1.655-1.104l12.138-24.552c.276-.275-.276-.551-.552-.275l-21.793 19.034c-.828.828-1.931-.276-1.38-1.38l16.828-22.344c.276-.276 0-.552-.276-.276l-25.103 15.172c-.828.552-1.931-.827-1.104-1.379l20.966-19.586c.276-.276 0-.552-.276-.552l-27.862 11.31c-1.103.276-1.655-1.103-.828-1.655l24.552-16c.276-.275 0-.551-.276-.551l-28.965 6.896c-1.104.276-1.38-1.103-.552-1.655l27.31-11.862c.276 0 .276-.552 0-.552l-30.344 1.931c-1.104 0-1.38-1.379-.276-1.655l29.241-7.448c.276 0 .276-.552 0-.552l-30.345-2.759c-1.103 0-1.103-1.655 0-1.655l30.345-2.758c.276 0 .276-.276 0-.552L92.69 62.621c-1.104-.276-.828-1.655.276-1.655l28.965 1.655c7.448 13.517 23.172 19.034 36.966 24C172.414 91.31 184 95.172 184 105.655c0 2.759-1.103 5.242-3.31 7.173zm41.655 17.103l-6.897-6.069s1.104-2.483 1.655-4.138l6.621 8.828c.552.827-.552 1.93-1.38 1.379zm9.93-8.828l-13.792-8.275s.551-4.138.551-6.345l14.345 13.241c.828.828-.276 1.931-1.103 1.38zm8-10.206l-20.965-8.552s0-4.966-.551-7.724l22.344 14.62c.828.552.276 1.931-.827 1.656zm11.035-36.414l-30.344 2.758c-.276 0-.276.276 0 .552l29.24 7.448c1.104.276.828 1.656-.275 1.656l-30.345-1.931c-.276 0-.276.275 0 .551l27.31 11.862c1.104.552.552 1.931-.551 1.655l-27.862-5.793s-1.104-12.413-15.724-22.62c-7.449-5.242-16.828-8.828-24.828-11.862-6.345-2.483-12.138-4.69-16.276-7.173-4.69-3.034-6.896-6.345-6.896-10.207 0-2.758.827-5.241 2.758-7.172 3.31-3.31 9.104-4.69 17.104-4.69 8.551 0 17.655 3.862 17.655 3.862l18.207-22.62c.827-.828 2.207 0 1.655 1.103L199.724 36.69c0 .276.276.551.276.276l22.069-19.035c.828-.828 1.931.276 1.38 1.38l-17.104 22.62c-.276.276 0 .552.276.276L232 26.759c.828-.552 1.931.827 1.103 1.379l-20.965 19.586c-.276.276 0 .552.276.276l27.862-11.31c1.103-.276 1.655 1.103.827 1.655l-24.551 16c-.276.276 0 .552.276.552l29.517-6.621c1.103-.276 1.38 1.103.552 1.655l-27.31 11.862c-.277 0-.277.552 0 .552l30.344-1.931c1.103 0 1.38 1.38.276 1.655l-29.241 7.448c-.276 0-.276.552 0 .552l30.344 2.759c1.104 0 1.104 1.655 0 1.655z"/></g></svg>
