<svg viewBox="0 0 399.67 266.46" xmlns="http://www.w3.org/2000/svg"><g transform="translate(-.17 -.17)"><path d="m264.42.17c1.9.37 3.81.68 5.69 1.14 8.91 2.18 14 8.26 14.16 17.37.17 8.25.07 16.51 0 24.76a2.6 2.6 0 0 1 -.83 1.79c-22.65 18.3-46.44 34.77-74.13 44.77-11.56 4.18-23.43 6.84-35.82 6.1-8.61-.5-16.69-2.7-23.18-8.77-6.1-5.69-8.55-12.88-7.78-21.12 1.18-12.63 8-22.25 16.82-30.71 9.32-9 20.51-14.93 32.21-20.09a180.18 180.18 0 0 1 45.51-13.56c4.11-.62 8.26-.88 12.39-1.32.7-.08 1.39-.24 2.08-.36z"/><path d="m189.88.17c-6.7 2.73-13.5 5.25-20.08 8.24a112.81 112.81 0 0 0 -32.16 21.28 73.85 73.85 0 0 0 -20.83 35.18c-.09.37-.27.71-.59 1.54 0-1.1-.1-1.74-.1-2.38 0-15.92.3-31.85-.13-47.76-.22-8 6.61-14.32 12.37-15.7a9.15 9.15 0 0 0 1-.4z"/><path d="m399.83 200.26h-7.15v-45.63h7.15z"/><path d="m116.17 94.39c2.31 3.11 4.4 6.38 6.93 9.27 7.7 8.78 17.72 13.32 29.08 15.06 17 2.61 33.45-.47 49.59-5.64 23.2-7.43 44.39-19 64.59-32.39 6-4 11.81-8.2 17.88-12.43 0 .77.09 1.45.09 2.12 0 16.12-.27 32.24.12 48.35.18 7.52-6.75 14-12.46 15.19a18 18 0 0 1 -3.66.41q-68.07 0-136.15 0c-7.38 0-14.28-5.37-15.85-12.28a8.42 8.42 0 0 1 -.2-1.73q0-12.57 0-25.15c-.01-.28.03-.58.04-.78z"/><path d="m42.59 164-6.72 3.53a13.94 13.94 0 0 0 -8.45-6.24 15.38 15.38 0 0 0 -18.6 12.48c-1.08 6.78.44 12.75 6 17 6.39 4.91 15.39 4.18 20.36-2.66.18-.25.4-.49.7-.84l6.59 3.27c-2.47 6.81-12.68 11.72-21.47 10.46-11.82-1.79-20-10.11-20.76-21.29-.85-12 5.61-21.83 16.43-25 10.58-3.13 21.09.57 25.92 9.29z"/><path d="m201.87 187.29 6.62 3.32c-4.6 8.19-13.21 11.95-23.71 10a23 23 0 0 1 -18.69-21.71c-.54-11.59 5.89-21 16.5-24.19s20.82.47 25.94 9.24l-6.73 3.57a14.32 14.32 0 0 0 -8.39-6.23 15.38 15.38 0 0 0 -18.72 12.71c-1 7 .7 13.07 6.79 17.25 6.69 4.6 14.73 3.21 19.68-3.22.2-.21.43-.43.71-.74z"/><path d="m120.82 200.11v-3.41c-2.22 1.27-4.33 3-6.74 3.78a13.4 13.4 0 0 1 -16.3-6.83 21.45 21.45 0 0 1 -.12-19.65c4.27-8.74 15.3-10.43 22.22-3.59a2.94 2.94 0 0 1 .39.88l.5-.33v-3.72h7.33v32.88zm0-16.45c0-1.82.05-3.64 0-5.46a3 3 0 0 0 -.53-1.77 10.08 10.08 0 0 0 -8.58-3.74 8.49 8.49 0 0 0 -7.62 5.51 13.56 13.56 0 0 0 -.2 10.41 8.86 8.86 0 0 0 10.72 5.79c4.33-1 6.23-3.29 6.23-7.62z"/><path d="m272.21 171.16v-3.92h7.32v32.87h-7.18c-.05-1.19-.11-2.37-.15-3.31-2.23 1.27-4.32 2.91-6.69 3.7a13.42 13.42 0 0 1 -16.2-6.73 21.42 21.42 0 0 1 -.05-20 13.66 13.66 0 0 1 21.91-3.57c.25.23.52.47 1.04.96zm.05 12.54c0-1.88.06-3.76 0-5.64a3.08 3.08 0 0 0 -.7-1.91c-2.89-2.9-6.36-4.28-10.42-3.06-3.89 1.17-5.72 4.2-6.44 8a11.28 11.28 0 0 0 -.18 1.74c-.06 4.43.9 8.42 5.12 10.78 3.37 1.88 7.67 1.17 11.05-1.57a3.82 3.82 0 0 0 1.63-3.49c-.14-1.55-.06-3.22-.06-4.85z"/><path d="m213 154.54h7v16.77c2.71-2.52 5.41-4.39 8.69-4.7a22.6 22.6 0 0 1 7.66.38c4.52 1.18 6 4.94 6.1 9.15.16 7.85 0 15.71 0 23.57 0 .11-.1.23-.2.45h-7.11v-2.1c0-6-.22-12 .05-17.93.33-7.28-5.09-8.49-9.91-6.84a14.83 14.83 0 0 0 -2.43 1.2 5.37 5.37 0 0 0 -3 5.36c.22 6 .07 12.08.07 18.12v2.19h-7z"/><path d="m91.94 186.09h-25.55c.26 7.13 9.53 13.13 19.9 5.49 1.06 1.52 2.13 3 3.23 4.6a17.49 17.49 0 0 1 -10.14 4.67c-7.16.91-13.53-.67-17.82-7-6.09-8.95-3-24.77 10.65-27.3 10.34-1.91 18 4.33 19.32 14.29.23 1.68.27 3.35.41 5.25zm-7.27-5.41c-.56-5.62-4.54-8.9-10.14-8.48-4.57.34-8.28 4.21-8.13 8.48z"/><path d="m387.74 186.16h-25.29c.73 8.9 9.87 11.36 19.95 5.46 1 1.46 2 2.93 3.18 4.55a16.22 16.22 0 0 1 -8 4.24c-7.31 1.6-14 .71-19.1-5.39-7.51-9.06-4.19-26.11 10.07-28.51 10.8-1.82 18.16 5 19.16 15.43.13 1.28.03 2.59.03 4.22zm-25.31-5.48h18.23c0-4.84-4-8.48-9.1-8.5s-9.08 3.7-9.13 8.5z"/><path d="m292.41 167.23v3.21c2.83-1.29 5.55-3 8.52-3.72a17.52 17.52 0 0 1 7.65.21 8.1 8.1 0 0 1 6.15 8.07c.11 8.32 0 16.64 0 25.12h-7.09v-2c0-5.85 0-11.7 0-17.55 0-.84-.13-1.68-.19-2.52-.32-4.24-3.51-5.87-7.1-5.33-2.25.34-4.37 1.73-6.47 2.8-1.18.61-1.49 1.78-1.47 3.15.06 7.08 0 14.16 0 21.4h-7.21v-32.84z"/><path d="m328 200.17h-7.24v-32.91h7.24v3.16c2.87-1.28 5.6-3 8.57-3.69a17.41 17.41 0 0 1 7.46.15 7.91 7.91 0 0 1 6.2 7.6c.15 8.5 0 17 0 25.65h-7v-2q0-9.08 0-18.13c0-5.78-3.2-8.42-8.8-7a14.47 14.47 0 0 0 -5 2.72 4.23 4.23 0 0 0 -1.32 2.94c-.12 6.43-.06 12.87-.06 19.3z"/><path d="m109.62 266.56c-11.75 0-20.85-8.42-22-20.17-.78-7.73.61-14.85 6-20.61 6.2-6.58 14.05-8.13 22.54-5.81s13.12 8.24 15.13 16.48a27.12 27.12 0 0 1 -.29 14.05 21.43 21.43 0 0 1 -21.38 16.06zm-18.15-23a51.79 51.79 0 0 0 .93 5.77 17.38 17.38 0 0 0 17 13.63c8.15.15 14.77-4.74 17.3-12.78a24.1 24.1 0 0 0 .7-11.92c-1.25-6.58-4.44-11.84-11-14.28s-12.58-1.8-18 2.55c-5.03 4.07-6.66 9.8-6.93 17.03z"/><path d="m213.19 219.86h3.58v45.74h-3.42v-5c-2.47 2.84-5 4.7-8.14 5.5a13.83 13.83 0 0 1 -16.68-8.38 21.86 21.86 0 0 1 .61-18.47 13.94 13.94 0 0 1 22.4-3.52c.46.45.91.92 1.65 1.67zm.09 29.4c0-2.34 0-4.68 0-7a3.44 3.44 0 0 0 -.41-1.83 12.73 12.73 0 0 0 -11-5.45 10.16 10.16 0 0 0 -9.18 5.87 17.7 17.7 0 0 0 -1.69 11.7c.85 4.67 2.87 8.56 7.69 10.11 5 1.59 9.3.06 13-3.4a4.4 4.4 0 0 0 1.55-3.78c-.06-2.07.04-4.15.04-6.22z"/><path d="m291.46 249c-.1 7.64-3.85 13.92-9.88 16.39a15.79 15.79 0 0 1 -21.83-12.2c-1-6-.19-11.6 3.85-16.3 4.35-5.07 10.08-6.23 16.31-4.56s9.62 6.29 11 12.43c.31 1.36.37 2.8.55 4.24zm-4 .55a16.8 16.8 0 0 0 -2.22-8.9 11.41 11.41 0 0 0 -19.58-.38 17.1 17.1 0 0 0 .26 18.05 11.36 11.36 0 0 0 18.92-.11 16.1 16.1 0 0 0 2.62-8.69z"/><path d="m222.94 249.09c.11-8.18 4.48-14.76 11.25-16.79a15.83 15.83 0 0 1 20.43 12.45c1.07 5.8.35 11.33-3.42 16.05-4.26 5.32-10 6.84-16.46 5.19s-9.88-6.35-11.26-12.66c-.31-1.39-.36-2.83-.54-4.24zm4-.13a15.67 15.67 0 0 0 2.7 9.36 11.39 11.39 0 0 0 18.48.47c4-5.2 4.07-13.7.27-19a11.39 11.39 0 0 0 -18.94.33 15.46 15.46 0 0 0 -2.53 8.88z"/><path d="m47.58 154.55h7.1v45.61h-7.1z"/><path d="m141.43 200.17h-7.29v-32.93h7v4.43c3.23-3.08 6.38-5.43 10.78-5.35v7a11.9 11.9 0 0 0 -8.83 2.35 3.88 3.88 0 0 0 -1.7 3.45c.09 6.98.04 13.93.04 21.05z"/><path d="m139.07 232.61h3.37v2.2 19.87s3.11 9.29 9.76 8.41a12.89 12.89 0 0 0 7.81-4 4.89 4.89 0 0 0 1.25-3c.11-7.08.06-14.16.06-21.24v-2.21h3.47v33h-3.37v-4.59c-1.08.85-1.8 1.44-2.54 2a15.81 15.81 0 0 1 -9.9 3.49c-6.33 0-9.87-3-10.09-9.35-.28-8-.07-16.1-.06-24.15.01-.1.17-.21.24-.43z"/><path d="m185.16 261.83 1.24 2.5a7.92 7.92 0 0 1 -8.54 1.71c-2.76-1.2-3.58-3.58-3.59-6.36 0-7.2 0-14.41 0-21.62v-2.32h-5.39v-3.21h5.43v-9.09h3.57c0 2.43.07 4.86 0 7.29-.05 1.36.38 1.87 1.76 1.79 1.61-.1 3.22 0 5 0v3.17h-6.71v22.31c0 5.15 2.55 6.58 7.23 3.83z"/><path d="m297.61 232.61h3.46v5.27c3.21-3.46 6.37-6.12 11.11-6v3.77c-3.83-.28-6.91 1.25-9.57 3.83a4.81 4.81 0 0 0 -1.57 3.78c.08 7.39 0 14.79 0 22.35h-3.47z"/></g></svg>