<svg width="400" height="127" viewBox="0 0 400 127" xmlns="http://www.w3.org/2000/svg"><title>designit</title><g><g transform="translate(0 97.578)"><path d="M85.675 6.92c-4.014 0-7.336 3.391-7.336 7.613 0 4.221 3.253 7.612 7.336 7.612 4.014 0 7.335-3.39 7.335-7.612 0-4.222-3.252-7.613-7.335-7.613zm0 11.627c-2.076 0-3.737-1.8-3.737-4.014 0-2.215 1.66-4.014 3.737-4.014 2.076 0 3.737 1.8 3.737 4.014.069 2.214-1.661 4.014-3.737 4.014zM39.654 7.336h-2.699c-.208 0-.484.207-.554.415l-2.214 6.99-3.806-7.475a.826.826 0 0 0-.623-.346h-.277a.826.826 0 0 0-.623.346l-3.806 7.474-2.215-6.99c-.069-.207-.346-.414-.553-.414h-2.7c-.345 0-.553.276-.414.622L23.599 21.8c.069.208.346.416.553.416h.415a.826.826 0 0 0 .623-.346l4.499-8.79 4.498 8.79a.826.826 0 0 0 .623.346h.415c.208 0 .484-.208.554-.416l4.429-13.84c0-.347-.208-.623-.554-.623zm6.367 0h-2.7a.62.62 0 0 0-.622.622v13.15a.62.62 0 0 0 .623.622h2.699a.62.62 0 0 0 .623-.623V7.958a.62.62 0 0 0-.623-.622zm11.903-.416c-1.869 0-3.599.83-4.844 2.146l-.485-1.315c-.069-.208-.346-.415-.553-.415h-1.246a.62.62 0 0 0-.623.622V28.72a.62.62 0 0 0 .623.623h2.699a.62.62 0 0 0 .623-.623v-7.198c1.176.416 2.422.623 3.737.623 3.806 0 6.92-3.39 6.92-7.612.07-4.222-3.045-7.613-6.851-7.613zm-.761 11.627c-1.108 0-2.215-.277-3.045-.83v-5.468a3.521 3.521 0 0 1 3.045-1.8c2.007 0 3.667 1.8 3.667 4.015 0 2.283-1.66 4.083-3.667 4.083zM74.879 6.92c-2.63 0-4.152 2.146-4.152 2.146l-.485-1.315c-.069-.208-.346-.415-.553-.415h-1.246a.62.62 0 0 0-.623.622v13.15a.62.62 0 0 0 .623.622h2.699a.62.62 0 0 0 .623-.623v-9.204c1.591-1.938 3.598-1.315 4.014-1.107.415.138.692-.07.83-.346.138-.277.692-1.661.969-2.146.207-.484-.139-1.384-2.7-1.384zM45.19.554c-1.176-.346-2.353.415-2.699 1.591-.346 1.177.416 2.422 1.523 2.7 1.176.345 2.353-.416 2.699-1.592.346-1.177-.346-2.353-1.523-2.7z"/><path d="M13.287 21.66a3.373 3.373 0 0 1-.761.278c-.277.069-.484.069-.83.069-.623 0-1.177-.208-1.523-.623a2.418 2.418 0 0 1-.554-1.522H9.55a4.54 4.54 0 0 1-1.868 1.73c-.83.415-1.73.623-2.769.623-.83 0-1.522-.139-2.145-.416-.623-.277-.969-.623-1.384-1.038-.415-.415-.692-.9-.9-1.453a4.29 4.29 0 0 1-.276-1.592c0-.484.069-.969.207-1.453.139-.484.415-.969.83-1.384.416-.415.9-.761 1.523-1.107.623-.277 1.453-.485 2.422-.554l4.291-.277v-1.038c0-.346-.07-.761-.138-1.107a1.64 1.64 0 0 0-.623-1.038c-.277-.208-.554-.415-.9-.554-.346-.138-.83-.207-1.453-.207-.623 0-1.177.069-1.592.207-.415.139-.761.346-.969.623-.484.484-.692 1.038-.692 1.73H.83c0-.692.139-1.246.346-1.73.208-.484.485-.9.9-1.315a5.08 5.08 0 0 1 1.869-1.176 7.239 7.239 0 0 1 2.491-.416c1.384 0 2.491.277 3.322.762.83.553 1.384 1.176 1.73 2.007.277.692.415 1.384.415 2.214v6.99c0 .346.07.623.208.761a.786.786 0 0 0 .553.208h.416l.207-.07v1.869zM9.55 14.81l-3.806.207c-.346 0-.692.07-1.107.208-.346.138-.692.277-1.038.484a3.966 3.966 0 0 0-.762.762c-.207.346-.276.692-.276 1.176 0 .623.207 1.246.622 1.73.416.485 1.177.761 2.146.761a4.29 4.29 0 0 0 1.591-.276c.485-.208.97-.485 1.315-.9.416-.415.762-.969.9-1.523.208-.553.277-1.176.277-1.73v-.9h.138zm101.315 2.145c-.07.761-.208 1.453-.484 2.076a6.31 6.31 0 0 1-1.177 1.592c-.484.484-1.107.9-1.8 1.176-.691.277-1.452.416-2.352.416-1.315 0-2.353-.277-3.183-.762-.83-.553-1.523-1.176-2.007-1.937a7.212 7.212 0 0 1-.9-2.077c-.208-.83-.277-1.73-.277-2.837 0-1.107.07-2.007.277-2.837.208-.83.484-1.454.9-2.076.484-.762 1.176-1.385 2.007-1.938.83-.554 1.868-.761 3.183-.761.83 0 1.592.138 2.284.415.692.277 1.245.623 1.73 1.107a6.31 6.31 0 0 1 1.176 1.592c.277.623.485 1.315.554 2.076h-2.422c-.07-.484-.208-.9-.346-1.315-.208-.346-.416-.692-.692-.969a2.606 2.606 0 0 0-1.038-.623 4.03 4.03 0 0 0-1.315-.207c-.554 0-1.038.069-1.384.277-.416.207-.762.415-1.038.692a3.428 3.428 0 0 0-1.108 1.937c-.207.83-.277 1.661-.277 2.56 0 .9.07 1.731.277 2.561.208.83.554 1.454 1.108 1.938.346.277.692.485 1.038.692.415.208.83.277 1.384.277.484 0 .969-.07 1.384-.277.415-.207.761-.415 1.038-.692.277-.277.484-.553.623-.9.138-.346.276-.76.346-1.245h2.491v.069zm13.149-2.353c0 1.107-.139 2.215-.415 3.183-.277 1.039-.83 1.869-1.592 2.7-.554.484-1.177.9-1.869 1.245a6.56 6.56 0 0 1-2.422.485c-.9 0-1.73-.139-2.422-.485a5.53 5.53 0 0 1-1.868-1.246c-.762-.76-1.315-1.66-1.592-2.699a12.173 12.173 0 0 1-.415-3.183c0-1.107.138-2.214.415-3.183.277-1.038.83-1.869 1.592-2.7a8.793 8.793 0 0 1 1.868-1.245 6.56 6.56 0 0 1 2.422-.484c.9 0 1.73.138 2.422.484a5.53 5.53 0 0 1 1.869 1.246c.761.761 1.315 1.66 1.592 2.699.276.969.415 2.007.415 3.183zm-2.422 0c0-.83-.07-1.66-.277-2.491a4.625 4.625 0 0 0-1.038-2.007c-.277-.277-.692-.554-1.107-.761-.416-.208-.9-.277-1.454-.277-.553 0-1.038.069-1.453.277-.415.207-.761.415-1.107.76a4.625 4.625 0 0 0-1.038 2.008c-.208.83-.277 1.591-.277 2.491 0 .83.069 1.661.277 2.491.207.83.553 1.454 1.038 2.007.277.277.692.554 1.107.762.415.207.9.276 1.453.276.554 0 1.038-.069 1.454-.276.415-.208.76-.416 1.107-.762a4.625 4.625 0 0 0 1.038-2.007c.207-.83.277-1.66.277-2.49zm21.66 7.197v-9.135c0-.484-.069-.968-.138-1.384-.069-.415-.277-.761-.484-1.038-.208-.277-.485-.553-.9-.692a3.765 3.765 0 0 0-1.384-.277c-.415 0-.83.07-1.176.277-.346.139-.692.415-.97.692a3.529 3.529 0 0 0-.968 1.8 10.745 10.745 0 0 0-.208 2.145v7.682h-2.422v-9.135c0-.485-.07-.97-.138-1.385-.07-.415-.208-.76-.485-1.038-.207-.276-.484-.553-.9-.692a3.765 3.765 0 0 0-1.383-.276 3.15 3.15 0 0 0-1.385.346c-.415.207-.76.553-1.038.9a4.396 4.396 0 0 0-.76 1.73 9.734 9.734 0 0 0-.209 1.937v7.682h-2.352V7.543h2.076l.207 2.076c.346-.83.9-1.453 1.661-1.799.761-.415 1.523-.623 2.353-.623 1.038 0 1.938.208 2.7.692a4.589 4.589 0 0 1 1.59 2.007c.208-.484.416-.83.762-1.176.277-.346.692-.623 1.038-.83.415-.208.83-.416 1.246-.485.415-.139.9-.139 1.315-.139 1.591 0 2.837.485 3.598 1.454.762.969 1.177 2.214 1.177 3.875v9.481h-2.422V21.8zm17.717-7.197a10.99 10.99 0 0 1-.554 3.46c-.346 1.038-.9 1.938-1.591 2.63a6.738 6.738 0 0 1-1.661 1.038c-.623.277-1.384.415-2.215.415-.415 0-.761-.069-1.176-.138-.416-.07-.762-.208-1.177-.415-.346-.139-.692-.416-1.038-.623-.277-.277-.554-.554-.761-.9v7.82h-2.422V7.336h2.076l.138 1.868c.415-.692 1.038-1.246 1.8-1.66.83-.416 1.591-.554 2.422-.554.9 0 1.66.138 2.353.415.692.277 1.245.692 1.73 1.176.692.692 1.176 1.592 1.522 2.63.346 1.038.554 2.145.554 3.391zm-2.422 0c0-.692-.07-1.315-.208-2.007a7.905 7.905 0 0 0-.623-1.8c-.277-.553-.692-.968-1.245-1.314-.554-.346-1.177-.484-1.938-.484-.554 0-.969.069-1.315.276-.346.208-.692.416-.969.692-.623.554-1.038 1.177-1.246 2.007-.207.83-.346 1.661-.346 2.56 0 .9.139 1.8.346 2.561.208.83.623 1.454 1.246 2.007.277.277.623.485.969.692.346.208.83.277 1.315.277.761 0 1.453-.138 1.938-.484.553-.346.968-.761 1.245-1.246a6.889 6.889 0 0 0 .623-1.8 8.754 8.754 0 0 0 .208-1.937zm16.193 7.059a3.373 3.373 0 0 1-.76.277c-.278.069-.485.069-.831.069-.623 0-1.177-.208-1.523-.623a2.418 2.418 0 0 1-.553-1.522h-.07a4.54 4.54 0 0 1-1.868 1.73c-.83.415-1.73.623-2.768.623-.83 0-1.523-.139-2.146-.416a4.93 4.93 0 0 1-1.522-1.038c-.415-.415-.692-.9-.9-1.453a4.29 4.29 0 0 1-.277-1.592c0-.484.07-.969.208-1.453.139-.484.415-.969.83-1.384.416-.415.9-.761 1.523-1.107.623-.277 1.453-.485 2.422-.554l4.29-.277v-1.038c0-.346-.068-.761-.138-1.107a1.64 1.64 0 0 0-.622-1.038c-.277-.208-.554-.415-.9-.554-.346-.138-.83-.207-1.453-.207-.623 0-1.177.069-1.592.207-.415.139-.761.346-.969.623-.484.484-.692 1.038-.692 1.73h-2.353c0-.692.139-1.246.346-1.73.208-.484.485-.9.9-1.315a5.08 5.08 0 0 1 1.868-1.176 7.239 7.239 0 0 1 2.492-.416c1.384 0 2.491.277 3.321.762.83.553 1.385 1.176 1.73 2.007.277.692.416 1.384.416 2.214v6.99c0 .346.069.623.207.761a.786.786 0 0 0 .554.208h.415l.208-.07v1.869h.207zm-3.737-6.851l-3.806.207c-.346 0-.692.07-1.107.208-.346.138-.692.277-1.038.484a3.966 3.966 0 0 0-.761.762c-.208.346-.277.692-.277 1.176 0 .623.207 1.246.623 1.73.415.485 1.176.761 2.145.761a4.29 4.29 0 0 0 1.592-.276c.484-.208.969-.485 1.315-.9.415-.415.76-.969.9-1.523.207-.553.276-1.176.276-1.73v-.9h.138zm14.395 6.99v-9.136c0-1.107-.208-1.937-.692-2.56-.485-.623-1.246-.9-2.422-.9-.692 0-1.315.208-1.8.623a4.001 4.001 0 0 0-1.245 1.592 3.831 3.831 0 0 0-.415 1.799c-.07.692-.07 1.315-.07 1.869v6.712h-2.422V7.405h2.076l.208 2.145c.208-.415.415-.761.761-1.107.346-.346.692-.554 1.038-.761.415-.208.83-.346 1.246-.485.415-.138.83-.138 1.246-.138 1.66 0 2.837.484 3.667 1.384.83.9 1.246 2.214 1.246 3.875V21.8h-2.422zm9.55 2.906c-.346.9-.83 1.66-1.384 2.214-.554.554-1.384.83-2.491.83-.623 0-1.108-.068-1.454-.138-.346-.069-.622-.138-.692-.207V25.26c.139.069.346.069.485.138.138.07.346.07.553.07h.692a2.65 2.65 0 0 0 1.315-.347c.346-.208.623-.554.83-1.107l.9-2.422-5.674-14.395h2.699l4.221 11.35 4.014-11.35h2.491l-6.505 17.509z"/></g><path d="M16.055 14.533v51.765H31.42c7.82 0 13.287-3.876 16.401-11.558 1.661-4.221 2.491-9.273 2.491-15.155 0-8.097-1.245-14.256-3.806-18.616-2.56-4.29-7.543-6.436-15.086-6.436H16.055zM46.436 2.56C52.042 4.36 56.54 7.75 59.931 12.595a35.985 35.985 0 0 1 5.675 12.803c.968 4.567 1.522 8.927 1.522 13.149 0 10.519-2.145 19.446-6.367 26.713-5.744 9.896-14.602 14.81-26.574 14.81H0V.83h34.187c4.913.07 8.996.623 12.249 1.73zm42.837 33.287c-2.145 2.145-3.53 5.12-4.083 8.858h26.298c-.277-3.945-1.661-6.99-4.083-9.066-2.422-2.076-5.467-3.114-9.066-3.114-3.875.07-6.92 1.107-9.066 3.322M112.18 22.56c4.083 1.799 7.474 4.705 10.104 8.65 2.422 3.46 3.944 7.543 4.636 12.11.416 2.7.623 6.506.485 11.627h-42.56c.276 5.952 2.283 10.035 6.09 12.457 2.352 1.453 5.12 2.214 8.373 2.214 3.46 0 6.298-.83 8.512-2.63 1.8-1.522 2.215-2.283 3.114-5.536h15.64c-.415 5.052-2.283 8.512-5.674 12.111-5.26 5.675-12.526 8.512-22.007 8.512-7.751 0-14.672-2.422-20.554-7.197-5.951-4.775-8.927-12.664-8.927-23.46 0-10.173 2.63-17.924 8.027-23.391 5.398-5.398 12.388-8.097 20.9-8.097 5.121-.139 9.758.83 13.84 2.63m31.696 38.823c.346 2.699 1.038 4.637 2.077 5.813 1.937 2.007 5.467 3.045 10.588 3.045 3.045 0 5.398-.415 7.197-1.315 1.8-.9 2.699-2.214 2.699-4.014 0-1.73-.692-3.044-2.145-3.944-1.454-.9-6.782-2.422-15.987-4.637-6.643-1.66-11.349-3.737-14.048-6.159-2.768-2.422-4.083-5.952-4.083-10.519 0-5.398 2.145-10.035 6.367-13.98 4.221-3.875 10.242-5.812 17.924-5.812 7.266 0 13.218 1.453 17.854 4.36 4.637 2.906 7.267 7.958 7.959 15.155h-15.294c-.208-1.938-.762-3.53-1.661-4.706-1.73-2.076-4.568-3.114-8.65-3.114-3.323 0-5.745.485-7.198 1.592-1.384 1.038-2.145 2.214-2.145 3.668 0 1.799.761 3.045 2.283 3.806 1.523.83 6.852 2.214 15.987 4.221 6.09 1.454 10.726 3.599 13.702 6.505 3.045 2.907 4.498 6.575 4.498 11.004 0 5.813-2.145 10.519-6.436 14.187-4.36 3.668-11.003 5.467-20.069 5.467-9.204 0-15.986-1.938-20.415-5.813-4.36-3.876-6.575-8.858-6.575-14.81h15.571zm98.063 2.076c2.422-2.699 3.668-6.99 3.668-12.941 0-5.536-1.177-9.827-3.53-12.734-2.353-2.906-5.398-4.36-9.342-4.36-5.33 0-8.997 2.492-11.004 7.544-1.038 2.699-1.592 6.02-1.592 9.965 0 3.391.554 6.436 1.73 9.135 2.007 4.914 5.744 7.405 11.073 7.405 3.53.07 6.505-1.315 8.997-4.014m-5.19-42.076c3.736 1.523 6.712 4.36 8.996 8.443v-8.443h15.017v55.571c0 7.543-1.245 13.287-3.806 17.093-4.36 6.644-12.734 9.897-25.121 9.897-7.474 0-13.564-1.454-18.27-4.43-4.706-2.906-7.336-7.335-7.82-13.148h16.678c.415 1.8 1.107 3.045 2.076 3.875 1.661 1.384 4.43 2.076 8.305 2.076 5.467 0 9.204-1.868 11.072-5.536 1.246-2.353 1.869-6.298 1.869-11.834v-3.737c-1.453 2.491-3.045 4.36-4.775 5.606-3.045 2.353-6.99 3.46-11.834 3.46-7.543 0-13.495-2.63-17.993-7.89-4.498-5.259-6.713-12.456-6.713-21.453 0-8.72 2.145-15.986 6.505-21.937 4.29-5.952 10.45-8.859 18.34-8.859 2.768-.069 5.328.416 7.473 1.246m75.987 3.46c3.806 3.184 5.744 8.443 5.744 15.779V80h-15.71V44.43c0-3.046-.415-5.468-1.246-7.06-1.522-2.976-4.36-4.498-8.58-4.498-5.191 0-8.651 2.145-10.59 6.574-1.037 2.353-1.522 5.33-1.522 8.928v31.695h-15.294V21.522h14.74v8.582c1.939-3.045 3.807-5.19 5.537-6.505 3.114-2.353 7.128-3.53 11.972-3.53 6.229 0 11.142 1.592 14.949 4.775m11.349-2.837h15.571V80h-15.571V22.007zm15.502-7.474h-15.502V.415h15.502v14.118zm-154.118 7.474h15.502V80h-15.502V22.007zm15.502-7.474h-15.502V.415h15.502v14.118zm143.114 18.2V22.008h8.097V5.467h15.225v16.47h9.55v10.727h-9.55v31.073c0 2.422.346 3.875.9 4.498.622.623 2.49.9 5.605.9.484 0 .969 0 1.453-.07.485 0 1.038-.068 1.523-.138v11.488l-7.267.346c-7.266.208-12.18-.969-14.81-3.806-1.73-1.73-2.63-4.429-2.63-8.166V32.734h-8.096zm46.09-25.743c-.415-.139-1.038-.208-1.8-.208h-.691v3.391h1.176c.692 0 1.246-.138 1.661-.415.415-.277.623-.761.623-1.384 0-.692-.346-1.177-.969-1.384zm-5.536 9.342V4.706H390.31c.97.07 1.661.277 2.284.623 1.038.553 1.592 1.453 1.592 2.768 0 .969-.277 1.66-.83 2.076-.554.484-1.246.692-2.008.83.693.139 1.315.346 1.661.693.692.553 1.038 1.453 1.038 2.63v1.037c0 .07 0 .208.07.346 0 .139 0 .208.069.346l.138.346h-2.906c-.07-.346-.139-.9-.208-1.591 0-.692-.07-1.177-.208-1.454a1.248 1.248 0 0 0-.83-.83c-.277-.138-.554-.208-1.038-.208l-.623-.069h-.623v4.083h-3.252zM383.045 4.43c-1.66 1.73-2.491 3.737-2.491 6.09 0 2.422.83 4.498 2.56 6.228 1.661 1.73 3.737 2.561 6.09 2.561 2.422 0 4.43-.9 6.09-2.56 1.661-1.73 2.56-3.807 2.56-6.16s-.83-4.36-2.49-6.09c-1.662-1.73-3.738-2.63-6.16-2.63-2.422-.069-4.429.762-6.159 2.561zm13.495 13.633c-2.007 2.007-4.498 2.976-7.336 2.976-2.976 0-5.467-1.038-7.474-3.045-2.007-2.007-3.045-4.498-3.045-7.474 0-3.045 1.107-5.606 3.253-7.612 2.076-1.938 4.498-2.838 7.197-2.838 2.907 0 5.329 1.038 7.405 3.114 2.007 2.007 3.114 4.499 3.114 7.405.07 2.907-.969 5.398-3.114 7.474z"/></g></svg>
