<svg width="400" height="43" viewBox="0 0 400 43" xmlns="http://www.w3.org/2000/svg"><title>hearstcorp</title><g><path d="M.334 19.967V9.616c0-.735.133-1.002 1.002-1.002 2.203.067 4.407.067 6.677 0 .668 0 .935.2.935.868-.067 2.004 0 4.007 0 6.01 0 .601.2.869.802.802a17.826 17.826 0 0 1 2.67 0c.668 0 .869-.2.869-.802v-6.01c0-.667.2-.868.868-.868 2.204.067 4.407 0 6.678 0 .668 0 .868.134.868.868v20.969c0 .6-.2.868-.801.801-2.27 0-4.475-.067-6.745 0-.735 0-.868-.267-.868-.935V23.64c0-.734-.267-1.068-1.002-1.001a16.09 16.09 0 0 1-2.537 0c-.535 0-.735.2-.735.734v6.878c0 .668-.2.935-.935.935-2.27-.066-4.54 0-6.811 0-.668 0-.802-.2-.802-.868-.133-3.339-.133-6.878-.133-10.35zm122.604-.268l.802.268c1.736.4 2.67 1.536 3.005 3.205.333 1.803.534 3.673.8 5.543.134.667.268 1.335.402 1.936.133.468 0 .668-.468.668-2.47 0-4.941 0-7.479-.067-.2 0-.601-.4-.668-.734-.334-1.603-.534-3.206-.801-4.808-.067-.468-.2-.935-.334-1.403-.4-1.068-1.736-1.736-2.738-1.335-.2.066-.4.534-.4.801 0 2.137-.067 4.34 0 6.477 0 .802-.2 1.002-1.002 1.002-2.204-.067-4.408 0-6.678 0-.668 0-.868-.133-.868-.868V9.416c0-.601.2-.868.801-.802 4.34 0 8.681-.066 12.955.067 1.402.067 2.872.334 4.207.868 2.404.868 2.938 3.072 2.805 5.209-.134 2.404-1.536 3.873-3.673 4.608-.134.066-.334.2-.668.333zm-7.88-3.94v1.737c0 .2.134.467.268.534 1.068.534 3.205-.534 3.539-1.67.467-1.669-.468-2.737-2.404-2.87-1.403-.068-1.403-.068-1.403 1.335v.935zM93.69 31.453h-8.347c-.668 0-.935-.2-1.068-.868-.134-.734-.334-1.402-.4-2.137-.068-.534-.335-.734-.869-.734-1.803.067-3.606 0-5.342 0-.534 0-.802.133-.935.734-.134.869-.334 1.67-.601 2.471-.067.2-.4.468-.601.468h-7.68c-.066 0-.066-.067-.2-.134.2-.734.468-1.402.668-2.137 2.137-6.544 4.34-13.088 6.477-19.633.2-.667.535-.868 1.202-.868h9.817c.534 0 .801.134 1.001.668 2.27 7.212 4.541 14.491 6.812 21.703.066.134.066.2.066.467zm-11.151-9.215c-.668-3.005-1.27-5.943-1.937-8.881h-.267c-.668 2.938-1.336 5.876-2.07 8.881h4.274zm62.504 1.937h3.272c.4 0 .734.066.734.6.067.869.401 1.537 1.27 1.737.934.2 1.936.267 2.737-.468.935-.868.534-2.47-.734-2.938-1.47-.534-3.005-.868-4.541-1.335-1.069-.334-2.137-.668-3.139-1.136-4.608-2.003-4.073-8.28-.868-10.484 1.67-1.135 3.54-1.67 5.476-1.803 2.27-.2 4.54-.267 6.744.4 2.137.669 4.007 1.737 4.474 4.074.401 2.004.668 1.87-1.402 1.87h-4.875c-.6 0-.935-.133-1.135-.801-.267-1.002-1.335-1.403-2.47-1.135-.936.2-1.403.868-1.336 1.803.067.8.6 1.135 1.269 1.335 1.402.4 2.871.668 4.207 1.135 1.402.468 2.804.935 4.073 1.603 2.404 1.202 3.005 3.606 2.671 5.943-.467 3.54-2.671 5.543-5.943 6.411-3.806 1.002-7.546.935-11.152-.735-2.337-1.068-3.406-3.005-3.472-5.475 0-.468.2-.735.734-.735 1.135.2 2.27.134 3.406.134zm-107.38-4.207V9.549c0-.734.201-.935.936-.935h15.225c.735 0 .935.2.935.935a38.767 38.767 0 0 0 0 3.94c0 .601-.2.868-.801.801h-6.879c-.667 0-.934.2-.934.935 0 2.204-.134 1.803 1.803 1.803h5.342c.668 0 .868.2.868.868a40.092 40.092 0 0 0 0 4.007c0 .601-.2.802-.801.802h-6.278c-.734 0-1.001.2-1.001 1.001.067 2.27-.267 2.004 2.003 2.004h6.01c.601 0 .868.2.801.8-.066 1.336 0 2.739 0 4.074 0 .601-.2.802-.8.802H38.463c-.668 0-.801-.267-.801-.868V19.967zM182.572 8.614h8.881c.735 0 .935.2.935.935-.066 1.403 0 2.805 0 4.14 0 .535-.2.735-.734.735h-3.873c-.668 0-.935.267-.935.935V30.25c0 .802-.267 1.069-1.069 1.002a111.315 111.315 0 0 0-6.678 0c-.734 0-1.001-.2-1.001-1.002.067-4.941 0-9.883.067-14.824 0-.802-.2-1.069-1.002-1.069-1.202.067-2.47 0-3.673 0-.6 0-.801-.2-.801-.801 0-1.402.067-2.805 0-4.14 0-.668.2-.868.868-.868 3.005.133 6.01.066 9.015.066zm81.202 4.408c-1.002.2-1.803.4-2.604.534-.267.067-.468.133-.735.067-.267-.067-.467-.267-.735-.401.2-.2.334-.534.602-.601.934-.2 1.87-.4 2.804-.534.668-.067 1.002-.4 1.202-1.069.468-1.736 1.069-3.405 1.603-5.142.2-.534.467-.934 1.068-1.001 1.27-.2 1.87.4 1.536 1.67-.4 1.335-.801 2.67-1.202 4.073-.067.267-.133.467-.2.868 1.068-.067 2.07-.2 3.072-.267.868 0 1.736 0 2.537.133 2.27.468 3.406 1.937 3.206 4.274-.535 5.543-2.939 10.217-7.28 13.756-2.003 1.67-4.407 2.471-7.078 2.07-.467-.066-.667.134-.801.535-.668 2.27-1.402 4.54-2.07 6.811-.334 1.068.067 1.67 1.135 2.003l2.204.601c.267.067.534.267.801.401v.267c-.4.067-.734.267-1.135.2-2.605-.066-5.209-.2-7.813-.333-.534 0-1.069 0-1.603-.067-.2 0-.334-.2-.467-.334.133-.134.267-.4.4-.468.2-.133.468-.133.735-.133 1.536-.067 2.337-.868 2.805-2.337 1.803-5.743 3.606-11.553 5.409-17.296.801-2.47 1.536-4.941 2.27-7.412.134-.134.2-.4.334-.868zm-1.536 14.624c0 1.67.4 2.337 1.336 2.604.935.2 1.803.134 2.604-.4.601-.468 1.202-1.002 1.67-1.603 2.67-3.472 4.206-7.48 5.008-11.753.334-1.87-.668-3.339-2.471-3.806a9.706 9.706 0 0 0-2.003-.2c-1.47.066-1.67.2-2.137 1.669l-3.206 10.618c-.333 1.135-.6 2.203-.8 2.871zm136.427-1.803c-.133.334-.133.735-.333.935-1.47 2.07-3.406 3.673-5.81 4.54-.601.201-1.269.268-1.87.268-.801 0-1.068-.334-.935-1.135.134-.668.468-1.403.735-2.004 1.87-4.006 3.74-7.946 5.542-11.953a7.166 7.166 0 0 0 .601-2.27c.067-1.069-.734-1.67-1.736-1.27-.6.201-1.202.535-1.603 1.003-1.602 2.003-3.138 4.006-4.607 6.143-2.204 3.272-4.34 6.678-5.943 10.284-.468 1.068-.869 1.269-1.737 1.135-.534-.067-.868-.334-.734-.935.067-.467.2-.868.334-1.335 1.67-4.474 3.339-9.015 5.008-13.49.134-.333.267-.667.334-1.001 0-.334 0-.801-.2-1.002-.2-.133-.735-.133-1.002 0-.601.4-1.135.868-1.603 1.403-.6.6-1.068 1.268-1.67 1.87-.133.133-.333.133-.533.2-.067-.2-.134-.401-.134-.668a.51.51 0 0 1 .134-.334c1.268-1.803 2.737-3.472 4.674-4.674.467-.268.935-.468 1.47-.535.867-.2 1.602.334 1.602 1.202 0 .868 0 1.803-.267 2.605-.735 2.137-1.603 4.273-2.404 6.344-.134.334-.2.667-.334 1.068.067.067.133.067.267.134.267-.401.534-.802.868-1.202 1.47-2.204 2.805-4.541 4.407-6.678.868-1.202 2.204-2.07 3.406-2.938.534-.401 1.402-.535 2.137-.535 2.27.067 3.406 1.603 2.671 3.807-.534 1.736-1.336 3.339-2.137 5.008-1.202 2.604-2.537 5.142-3.74 7.746-.133.267 0 .668 0 1.002.334 0 .802.134 1.002-.067 1.002-.801 1.937-1.67 2.938-2.47.268-.268.601-.468.869-.668.2.334.267.4.333.467zm-74.056-2.604c-.401.4-.735.801-1.136 1.202-2.003 2.203-4.073 4.34-6.544 5.943-1.269.801-2.537 1.536-4.006 1.603-1.336.066-2.137-.601-2.338-1.937-.2-1.536.067-2.938.668-4.274 2.404-5.075 6.144-8.748 11.286-11.085 1.335-.6 2.804-.734 4.273-.534 1.403.2 1.603.067 2.27-1.135.535-1.002 1.203-1.336 2.271-1.136.802.134 1.069.401.735 1.202-.601 1.47-1.269 2.872-1.937 4.274a763.776 763.776 0 0 0-4.875 10.752c-.133.267-.066.667-.066.934.334 0 .734.134 1.001-.066.868-.601 1.67-1.202 2.471-1.937.735-.668 1.402-1.469 2.137-2.204.2-.2.534-.2.801-.333-.066.267 0 .667-.133.868-2.004 2.47-4.274 4.674-7.079 6.143-.467.267-1.135.4-1.67.4-.8.068-1.268-.467-.934-1.201.668-1.803 1.402-3.54 2.07-5.342.267-.668.668-1.336 1.002-2.07-.134 0-.2-.067-.267-.067zm.267-8.147c-.534.2-1.736.534-2.671 1.068-3.34 1.937-5.944 4.675-7.813 8.08-.468.802-.735 1.803-.935 2.672-.267 1.268.467 2.203 1.736 2.003.935-.134 1.87-.534 2.671-1.002 3.473-2.27 6.277-5.142 8.48-8.68.335-.535.602-1.203.802-1.804.534-1.47-.133-2.337-2.27-2.337zm-31.653 3.138c-.067 4.475-1.736 8.28-5.008 11.353-1.403 1.335-3.005 2.27-5.009 2.337-1.67.067-2.738-.668-3.472-2.07-.735-1.603-.935-3.34-.868-5.075.133-3.94 1.469-7.48 4.207-10.351 1.469-1.536 3.138-2.805 5.342-3.139 1.603-.267 2.805.334 3.673 1.737.935 1.602 1.135 3.339 1.135 5.208zm-12.287 10.084c0 1.002.133 2.003 1.135 2.47 1.002.535 2.003.268 2.738-.534.801-.8 1.536-1.669 2.137-2.67 1.803-2.939 2.938-6.144 3.74-9.483.333-1.403.734-2.805.333-4.274-.467-1.736-1.736-2.337-3.205-1.336-.868.601-1.736 1.403-2.27 2.27-2.672 4.208-4.007 8.816-4.608 13.557zm-58.23-3.205c.2-5.276 2.203-9.683 6.61-12.755 1.069-.735 2.271-1.202 3.607-1.202 1.535 0 2.537.868 3.205 2.204.801 1.669 1.068 3.539.935 5.409-.267 4.607-2.137 8.48-5.743 11.419-1.269 1.001-2.671 1.67-4.274 1.736-1.67.067-2.805-.601-3.472-2.137-.735-1.47-.868-3.005-.868-4.674zm2.003 3.071c0 1.202.133 2.137 1.202 2.605 1.068.467 2.003.2 2.805-.601.734-.735 1.469-1.603 2.003-2.471 2.003-3.272 3.205-6.878 4.073-10.618.267-1.202.401-2.47-.066-3.673-.468-1.135-1.47-1.602-2.605-1.135-.534.2-1.135.534-1.469.935-1.002 1.336-2.07 2.671-2.805 4.14-1.669 3.54-2.67 7.212-3.138 10.818zm137.896-3.005c.134-5.208 2.137-9.549 6.478-12.62a6.141 6.141 0 0 1 1.87-.936c2.537-.935 4.607 0 5.409 2.605 1.135 3.606.734 7.145-.869 10.484-1.268 2.738-3.071 5.075-5.81 6.477-.867.401-1.869.668-2.804.735-1.603.2-2.671-.601-3.406-2.003-.6-1.202-.868-2.605-.868-4.742zm12.287-9.75c-.066-1.268-.066-2.537-1.335-3.071-1.269-.534-2.27.133-3.139 1.002a19.848 19.848 0 0 0-1.803 2.337 25.497 25.497 0 0 0-3.005 7.546c-.467 1.803-.801 3.673-.935 5.542-.133 1.87 1.67 2.805 3.273 1.87.6-.4 1.268-.868 1.602-1.469 1.002-1.536 1.937-3.139 2.671-4.808 1.336-2.871 2.27-5.81 2.671-8.948zm-72.053 7.88l.801-1.402c1.336-2.337 2.672-4.674 4.074-7.012.6-1.001 1.402-1.87 2.204-2.737.4-.401 1.001-.735 1.535-.935 1.27-.334 2.137.267 2.204 1.602 0 .735 0 1.536-.2 2.204-.134.467-.534 1.002-.935 1.269-.868.534-1.536.133-1.67-.935-.066-.4-.267-.801-.4-1.202-.4.267-.935.4-1.135.734-1.202 1.603-2.404 3.206-3.34 4.942-2.003 3.606-3.94 7.279-5.876 10.885-.2.334-.6.734-.935.734-.935.134-1.269-.333-1.001-1.202 1.268-4.54 2.47-9.081 3.74-13.622.133-.535.467-1.202-.134-1.603-.601-.334-1.069.267-1.403.668-.734.868-1.402 1.803-2.07 2.67-.334.402-.668.735-1.002 1.136-.066 0-.2-.067-.267-.067 0-.334-.133-.667 0-.935 1.536-2.604 3.34-5.075 5.81-6.944.2-.134.468-.268.735-.334.935-.334 1.67.066 1.602 1.068-.133 1.603-.334 3.205-.667 4.741-.401 1.803-1.002 3.606-1.536 5.41-.067.267-.134.467-.2.734-.067.134 0 .134.066.134zm-56.227 0c.2-.333.4-.6.534-.934 1.536-2.605 3.005-5.21 4.541-7.813.534-.869 1.336-1.67 2.07-2.471.668-.735 1.536-1.202 2.605-.802.4.134.934.601 1.001.935.067 1.002.067 2.004-.133 3.005-.067.401-.535.868-.935 1.069-.868.467-1.47.067-1.603-.868-.067-.2 0-.401-.067-.535-.066-.267-.133-.6-.334-.667-.2-.067-.6.066-.734.267-.668.734-1.402 1.469-1.87 2.27-2.404 4.207-4.808 8.481-7.212 12.755-.267.4-.467.868-.668 1.269-.334.935-.935.935-1.602.734-.735-.267-.535-.935-.401-1.402a779 779 0 0 1 3.74-13.356c.133-.534.534-1.202-.134-1.602-.668-.334-1.068.267-1.47.734-.8.935-1.468 1.937-2.27 2.938-.267.334-.534.535-.8.868-.068 0-.201-.066-.268-.066 0-.267-.134-.668 0-.868 1.536-2.605 3.339-5.009 5.743-6.945.267-.2.534-.334.868-.468.935-.334 1.67.067 1.536 1.069-.267 2.137-.601 4.34-1.069 6.477-.267 1.269-.734 2.47-1.135 3.74-.067.2-.133.467-.2.668.133-.067.2 0 .267 0zm94.29-9.75h-2.604c-.534 0-.868 0-.868-.734 0-.667.334-.801.935-.801.868 0 1.736.067 2.538 0 .267 0 .6-.267.734-.534.534-1.269 1.002-2.538 1.47-3.807.333-.8 1.802-1.202 2.403-.6.2.2.2.667.134.934-.334 1.069-.735 2.07-1.135 3.072-.067.267-.2.534-.334.935h3.472c.534 0 .868.2.801.801 0 .468-.2.735-.734.735h-3.339c-.467 0-.735.133-.935.6-1.603 4.275-3.205 8.549-4.808 12.89-.134.266-.134.8 0 .934.2.2.668.2.935.067.668-.334 1.336-.735 1.87-1.269.801-.801 1.536-1.67 2.337-2.538.2-.2.467-.4.735-.6.066.066.2.133.267.2-.134.4-.134.801-.334 1.135-2.004 2.871-4.474 5.142-7.546 6.745-.134.066-.267.133-.4.133-.535-.067-1.203.067-1.47-.2-.267-.2-.2-.935-.067-1.403.4-1.335.935-2.67 1.403-4.006 1.402-3.873 2.804-7.747 4.14-11.686.2-.334.267-.601.4-1.002zm17.029 12.756c-.067.267-.134.534-.267.734-2.07 2.137-4.274 3.94-7.212 4.741-.067 0-.134.067-.134.067-.668.067-1.469.267-1.803-.4-.2-.468-.133-1.27.134-1.804 1.87-3.94 3.873-7.88 5.743-11.753.334-.734.734-1.469.935-2.27.066-.267-.067-.668-.134-1.068-.334.066-.668.066-.935.267-.801.534-1.603 1.202-2.404 1.736-.267.2-.467.334-.734.467-.2.067-.401 0-.668 0 0-.2 0-.534.133-.667 2.004-1.803 3.94-3.74 6.478-4.808.6-.268 1.202-.535 1.803 0 .534.534.534 1.202.267 1.87-.735 1.802-1.536 3.539-2.337 5.342l-4.207 8.814c-.067.134-.2.267-.2.468 0 .267-.067.734.133.868.133.133.668.133.868.067 1.068-.668 2.137-1.403 3.205-2.07.401-.268.735-.468 1.136-.668.066-.067.133 0 .2.067zm-151.786.467c.467-4.942 2.203-9.55 5.943-13.289 1.803-1.803 4.073-2.671 6.61-2.204.335.067.669.134 1.002.268 1.069.4 1.536 1.402 1.203 2.337-.268.734-1.403 1.068-2.338.534a6.396 6.396 0 0 1-1.67-1.336c-1.134-1.068-1.936-1.135-2.937 0-.869 1.002-1.603 2.204-2.204 3.406-1.269 2.538-2.137 5.209-2.671 8.014-.134.8-.067 1.669.067 2.47.333 1.603 1.669 2.338 3.205 1.737.734-.334 1.402-.869 2.07-1.403.4-.334.735-.868 1.135-1.269.134-.133.4-.133.601-.066.067.066.2.4.067.534-1.536 2.137-3.205 4.14-5.743 5.142-2.137.801-3.74-.2-4.14-2.605a58.307 58.307 0 0 1-.2-2.27zM358.397 4.207c-1.001 0-2.003-1.002-2.003-2.003 0-1.002 1.002-1.937 2.003-1.937 1.069 0 2.004.935 2.004 2.003 0 1.002-1.002 1.937-2.004 1.937z"/></g></svg>
