<svg width="399" height="198" viewBox="0 0 399 198" xmlns="http://www.w3.org/2000/svg"><title>lonely-planet</title><g><path d="M198.82 11.282c36.978-.074 69.93 23.322 82.052 58.256l4.991-1.709 4.958-1.71C277.519 26.65 240.528.057 198.876.022c-41.652-.035-78.688 26.496-92.055 65.945l9.897 3.76C128.98 34.85 161.85 11.451 198.82 11.282z"/><path d="M131.111 108.564l-11.966-1.795c-6.034 4.581-12.94 2.205-15.128-3.88h29.06v18.803h14.461v-9.624a12.342 12.342 0 0 0 20.992 5.693 22.53 22.53 0 0 1-.872 6.615c-2.154 5.128-9.384 5.128-13.128 1.71l-8.547 10.99a23.726 23.726 0 0 0 17.914 5.693c5.778-.581 9.453-1.59 13.847-5.555a19.026 19.026 0 0 0 5.128-12.65V77.675H168.7v26.804a3.556 3.556 0 1 1-7.111 0V77.675h-14.052V60.462h-14.41v31.06c-4.632-9.932-13.402-15.043-24.376-13.505a21.88 21.88 0 0 0-16.547 13.504c-2.735-8.735-9.18-13.367-18.17-13.846-9.54 0-16.633 4.667-19.488 13.846-4.82-10.58-14.427-15.709-25.88-13.11a21.607 21.607 0 0 0-14.171 12.17v-30.12H.068v61.3h14.428v-13.676a21.863 21.863 0 0 0 20.034 12.872c9.744-.58 16-5.128 19.949-13.846v14.684h13.88V95.316c.53-5.778 9.316-5.948 9.846 0v26.445h13.932v-13.846a22.376 22.376 0 0 0 15.795 13.316c16.53 1.572 23.077-9.795 23.18-12.667zm-97.162-.256a9.128 9.128 0 1 1 9.128-9.146 9.145 9.145 0 0 1-9.128 9.146zm87.521-10.975h-17.744a9.18 9.18 0 0 1 17.744 0zm271.898 32.958c-.291.53-.48.923-.616 1.196a14 14 0 0 0-.53-1.094l-2.65-5.248h-2.187v7.402h1.418v-6.273l3.197 6.273h1.316l3.248-6.188v6.188H398v-7.402h-1.932l-2.7 5.146z"/><path d="M198.684 186.205c-36.712.263-69.597-22.66-82.052-57.196l-4.991 1.709-4.957 1.71c13.87 38.874 50.67 64.84 91.946 64.875 41.274.034 78.119-25.87 92.054-64.722l-9.812-3.743c-12.617 34.495-45.458 57.418-82.188 57.367z"/><path d="M377.111111 126.034188L380.769231 126.034188 380.769231 132.547009 382.25641 132.547009 382.25641 126.034188 385.91453 126.034188 385.91453 125.145299 377.111111 125.145299z"/><path d="M381.726 119.419c6.189 4.496 17.283.188 17.095-2.735l-.53-12.137-.65.564a4.957 4.957 0 0 1-7.692-1.419c-1.368-4.102-.65-8.547-.65-12.889h8.82V77.897h-8.82v-8.803h-13.897v22.41a21.88 21.88 0 0 0-12.257-12.256c-11.966-4.24-23.367.752-28.632 12.256a19.436 19.436 0 0 0-11.026-12.478c-11.555-4.052-22.666.752-26.684 12.478-3.18-7.367-7.76-11.248-15.658-13.401a21.83 21.83 0 0 0-24.342 12.478v-30.12h-14.427v30.12a24.65 24.65 0 0 0-6.838-8.735c-14.786-10.718-34.188 0-34.598 18v38.205h14.376c0-3.846-.444-18.803-.444-18.803l1.59.667c10.769 2.735 21.743-2.701 25.931-11.112v12.958h14.428v-12.958a21.726 21.726 0 0 0 21.914 13.18c4.547.29 8.342-11.727 8.359-8.393v8.393h9.641l14.017-.222V95.316c0-5.504 9.043-5.983 9.504-.342.103 8.667.086 18.342.086 26.838h14.17v-13.846a22.598 22.598 0 0 0 11.881 12.17c11.436 3.727 23.35 1.898 27.812-11.965l-12.051-1.949c-2.77 4.154-12.667 5.043-15.795-3.213h29.06c-.017 6.717.12 11.914 6.307 16.41zm-158.495-10.855a9.128 9.128 0 1 1 9.128-9.128 9.162 9.162 0 0 1-9.145 9.111l.017.017zm53.282 0a9.128 9.128 0 1 1 9.128-9.128 9.145 9.145 0 0 1-9.162 9.111l.034.017zm69.76-11.966a9.094 9.094 0 0 1 17.47 0H346.24h.035z"/></g></svg>
