<svg height="37" width="195" xmlns="http://www.w3.org/2000/svg"><g fill="none" fill-rule="evenodd"><path d="M56.07 2.21v33.88h1.5V2.21z" fill="#000"/><path d="M169.09 11c.13.358.38.659.71.85.424.226.9.333 1.38.31a3.74 3.74 0 0 0 1.33-.22 6.17 6.17 0 0 0 1.23-.65 4.69 4.69 0 0 0 .94-.78 4.59 4.59 0 0 0 .74-1.46 6 6 0 0 0 .32-1.91 3.3 3.3 0 0 0-.12-.93 1.93 1.93 0 0 0-.39-.73 1.87 1.87 0 0 0-.79-.49 3.32 3.32 0 0 0-1.15-.19 3.56 3.56 0 0 0-1.42.29 5.47 5.47 0 0 0-1.23.73 5.18 5.18 0 0 0-.78.71 4.33 4.33 0 0 0-.66 1.41 6.36 6.36 0 0 0-.3 1.89 3.43 3.43 0 0 0 .2 1.18zm1.86-3.47a4 4 0 0 1 .74-1.66 1.34 1.34 0 0 1 1-.44 1.18 1.18 0 0 1 .93.4c.27.373.399.83.36 1.29a8.62 8.62 0 0 1-.31 2.21 5.51 5.51 0 0 1-.47 1.24 1.84 1.84 0 0 1-.56.65 1.28 1.28 0 0 1-.72.2 1.22 1.22 0 0 1-1-.39 2 2 0 0 1-.34-1.29 8.71 8.71 0 0 1 .33-2.23zm6.73-1.72h1l-1.06 5.47a23 23 0 0 1-.67 3 1.06 1.06 0 0 1-.31.49.64.64 0 0 1-.39.14.6.6 0 0 1-.4-.15 1.39 1.39 0 0 1-.33-.5h-.23c-.05.26-.11.51-.18.73s-.17.51-.3.88c.151.07.314.114.48.13.253-.006.5-.075.72-.2a4.94 4.94 0 0 0 1.4-1.18 6.38 6.38 0 0 0 1.11-1.85c.4-1.12.734-2.261 1-3.42l.77-3.54h1.87a4.7 4.7 0 0 1 .23-.76l-.07-.12a6.38 6.38 0 0 1-.71.07c-.527.033-.86.033-1 0h-.12a20.22 20.22 0 0 1 .43-1.95 2.67 2.67 0 0 1 .2-.54.75.75 0 0 1 .27-.28.67.67 0 0 1 .35-.1 1 1 0 0 1 .53.19c.24.176.444.396.6.65h.22a13.43 13.43 0 0 1 .41-1.87 1.68 1.68 0 0 0-.6-.12 1.8 1.8 0 0 0-.69.11 7.53 7.53 0 0 0-1 .67 14.67 14.67 0 0 0-1.42 1.16 3.1 3.1 0 0 0-.61.75 3.86 3.86 0 0 0-.26.86c0 .19-.07.31-.1.39a5.66 5.66 0 0 1-.79.28c-.32.093-.56.17-.72.23l-.07.37h.44zM76.07 22.3h-1.33a7.08 7.08 0 0 1-.17 1.7.47.47 0 0 1-.29.35 9.82 9.82 0 0 1-2.47.18c-.453 0-1.323-.037-2.61-.11v-2.08c0-2.62.057-4.43.17-5.43l1.59-.07h1.43a13.64 13.64 0 0 1 2.32.17 4 4 0 0 1 1.26.35.29.29 0 0 1 .14.15c.063.262.094.53.09.8.06.813.09 1.34.09 1.58h1.23c0-.667.047-1.443.14-2.33s.19-1.62.29-2.2l-.14-.21a26.18 26.18 0 0 0-2.9-.15l-7.28.14-5.34-.14v1.3c.6.023 1.197.08 1.79.17.153.024.299.078.43.16a.49.49 0 0 1 .14.25 7.61 7.61 0 0 1 .17 1.65c.093 2.667.14 4.08.14 4.24V29c0 .533-.027 1.413-.08 2.64s-.093 1.957-.12 2.19a1.87 1.87 0 0 1-.21.79.47.47 0 0 1-.23.17 10.22 10.22 0 0 1-2.03.21v1.25c1.86-.073 3.22-.11 4.08-.11l5.92.08V35a17.42 17.42 0 0 1-2.38-.25.71.71 0 0 1-.38-.26 5.51 5.51 0 0 1-.24-1.67c-.06-.96-.09-2.627-.09-5v-1.71h1.21c1.18-.026 2.36.04 3.53.2a.76.76 0 0 1 .54.29 7.18 7.18 0 0 1 .26 2.28h1.33zm8.42 13.78c.667 0 1.827.02 3.48.06l3.56.08c1.293 0 2.247-.027 2.86-.08a5.15 5.15 0 0 0 .9-.14c0-.193.047-.767.14-1.72l.38-3.06v-.5h-1.23c-.193.973-.39 1.847-.59 2.62a1.39 1.39 0 0 1-.26.56 1.88 1.88 0 0 1-.74.2 26.43 26.43 0 0 1-4 .27c-.507 0-1.457-.037-2.85-.11v-2.58-4.29-4.37c0-1.693.023-3.097.07-4.21a12.27 12.27 0 0 1 .08-1.88.53.53 0 0 1 .24-.3 6.89 6.89 0 0 1 2.09-.27V15c-1.647.073-3.387.11-5.22.11-1.647 0-3.11-.037-4.39-.11v1.33a6.79 6.79 0 0 1 2.32.3.47.47 0 0 1 .23.27c.15 1.08.214 2.17.19 3.26v5.91c0 2.173-.02 4.033-.06 5.58s-.087 2.447-.14 2.7a.36.36 0 0 1-.07.17 1.44 1.44 0 0 1-.41.3 9.88 9.88 0 0 1-1.1.59v.78c2-.093 3.503-.14 4.51-.14zm13.06-4.2a9.06 9.06 0 0 0 3.84 3.64 12.82 12.82 0 0 0 5.85 1.24 14.54 14.54 0 0 0 5.6-1 9.93 9.93 0 0 0 3.19-2.17 9.58 9.58 0 0 0 2.13-3.23 14 14 0 0 0 1-5.28 13 13 0 0 0-.37-3.08 9.81 9.81 0 0 0-1-2.56 9.47 9.47 0 0 0-4.89-4 15.28 15.28 0 0 0-5-.77 15.71 15.71 0 0 0-5.11.8A9.85 9.85 0 0 0 97 21a12.76 12.76 0 0 0-.84 4.83 11.82 11.82 0 0 0 1.39 6zm4-11.39a5.87 5.87 0 0 1 2.26-3.07 6.61 6.61 0 0 1 3.76-1 6.4 6.4 0 0 1 3.11.65 6.12 6.12 0 0 1 2 1.89 9.34 9.34 0 0 1 1.32 3 15.25 15.25 0 0 1 .46 3.88 14.37 14.37 0 0 1-.85 5.26 6 6 0 0 1-2.32 3.04 6.47 6.47 0 0 1-3.41.91 6.56 6.56 0 0 1-3.57-1 6.82 6.82 0 0 1-2.48-3.27 15.21 15.21 0 0 1-1-5.85 13.66 13.66 0 0 1 .7-4.49zm19.74-3.89a.57.57 0 0 1 .22.26 9.7 9.7 0 0 1 .18 2.27l.08 3.2v5.62l-.12 4.42a14.11 14.11 0 0 1-.15 1.79 1 1 0 0 1-.13.42.46.46 0 0 1-.26.15 11.4 11.4 0 0 1-2 .17v1.33c1.333-.073 2.79-.11 4.37-.11 1.767 0 3.51.037 5.23.11v-1.34a15.11 15.11 0 0 1-1.76-.09 1.18 1.18 0 0 1-.44-.16.62.62 0 0 1-.2-.22 3.58 3.58 0 0 1-.17-1.1c0-.28-.03-1.46-.09-3.54v-4.81c0-.96.03-2.867.09-5.72 0-1.273.03-2.093.09-2.46a8.54 8.54 0 0 1 1.44-.12 7.7 7.7 0 0 1 2.27.23 3.52 3.52 0 0 1 1.65 1.29c.466.682.7 1.495.67 2.32a4.93 4.93 0 0 1-.64 2.49 3.59 3.59 0 0 1-1.56 1.54 6.24 6.24 0 0 1-2.74.37l-.17.5c.362.284.679.621.94 1 .667.88 1.453 2.087 2.36 3.62l3.24 5.34c.157.27.278.559.36.86.8-.04 1.603-.06 2.41-.06.667 0 1.79.02 3.37.06v-1.34a3 3 0 0 1-1-.12 1.6 1.6 0 0 1-.5-.37c-.173-.18-.637-.77-1.39-1.77l-1-1.5-2.35-3.5-.17-.29c-.06-.1-.24-.38-.57-.86s-.61-.93-.86-1.38a7.56 7.56 0 0 0 3.5-2.38 5.39 5.39 0 0 0 1.14-3.33 4.15 4.15 0 0 0-.83-2.62 3.88 3.88 0 0 0-2-1.42 13.78 13.78 0 0 0-3.56-.34c-.82 0-1.853.03-3.1.09-.76.047-1.667.07-2.72.07h-2.88l-2.42-.07v1.2a8.55 8.55 0 0 1 2.22.3zm24.15-1.46c-1.647 0-3.107-.037-4.38-.11v1.33a16 16 0 0 1 1.92.13.75.75 0 0 1 .36.17.66.66 0 0 1 .15.3c.11.799.17 1.604.18 2.41v10.21c0 1.033-.04 2.153-.12 3.36-.05.83-.09 1.3-.12 1.42a.49.49 0 0 1-.14.24.9.9 0 0 1-.43.17c-.16 0-.767.037-1.82.11v1.33a76.478 76.478 0 0 1 4.35-.11c1.873 0 3.63.037 5.27.11v-1.32a14.41 14.41 0 0 1-1.81-.1 1.15 1.15 0 0 1-.46-.18.61.61 0 0 1-.21-.33 8.27 8.27 0 0 1-.15-2v-8.9c0-.193.02-1.527.06-4v-1.49a3.57 3.57 0 0 1 .15-1 .5.5 0 0 1 .17-.25 1.06 1.06 0 0 1 .41-.17 14.82 14.82 0 0 1 1.83-.11V15c-1.647.073-3.393.11-5.24.11zm11.71 21l4.49.11a17.7 17.7 0 0 0 5.22-.67 11.79 11.79 0 0 0 4-2.2 10.73 10.73 0 0 0 2.91-3.8 12.09 12.09 0 0 0 1.06-5.16 11.87 11.87 0 0 0-.71-4.18 7.21 7.21 0 0 0-1.25-2.12 8 8 0 0 0-2-1.7 8.78 8.78 0 0 0-2.81-1 22.57 22.57 0 0 0-4.29-.33c-.78 0-1.813.017-3.1.05-1.787.06-3.003.09-3.65.09l-5.45-.23v1.22c1.093.14 1.727.23 1.9.27a.77.77 0 0 1 .38.18.53.53 0 0 1 .12.21c.145.903.212 1.816.2 2.73.053 2.573.08 4.527.08 5.86V28c0 3.04-.057 5.237-.17 6.59-.32.243-.654.466-1 .67l-.42.24v.73l4.58-.11zm1.31-7.71v-3.5c0-3.96.053-6.653.16-8.08a18.17 18.17 0 0 1 2.57-.2 14.71 14.71 0 0 1 4.63.54 5.69 5.69 0 0 1 2.53 1.76 7.46 7.46 0 0 1 1.44 2.82 12.69 12.69 0 0 1 .44 3.34 13.59 13.59 0 0 1-.44 3.53 9.34 9.34 0 0 1-1.23 2.82 6.77 6.77 0 0 1-1.66 1.79 6.49 6.49 0 0 1-2 .92 13.63 13.63 0 0 1-3.57.42 16.32 16.32 0 0 1-2.69-.24c-.107-.96-.16-2.94-.16-5.94zm17.17 7.71l3.49.11V35a6.49 6.49 0 0 1-2.16-.27.56.56 0 0 1-.24-.51c.148-.89.4-1.759.75-2.59l.66-1.81h7.81l1.35 3.28c.185.391.303.81.35 1.24a.45.45 0 0 1-.23.43 8.8 8.8 0 0 1-2.12.23v1.25l5.31-.11 4.21.11V35l-.67-.07a4.7 4.7 0 0 1-.88-.11.9.9 0 0 1-.31-.18 1.46 1.46 0 0 1-.29-.39l-.61-1.39-.94-2.07-6.72-15.85h-2.16l-1.33 3.44-3.95 9.75a548.915 548.915 0 0 1-1.51 3.71 257.941 257.941 0 0 1-1 2.31 1.74 1.74 0 0 1-.34.45 1.08 1.08 0 0 1-.4.21c-.483.085-.97.138-1.46.16v1.25l3.47-.11zm6.36-15.94l3.24 7.8h-6.35l3.12-7.83zM63.08 2.81a.51.51 0 0 1 .21.19c.05.131.077.27.08.41v5.66a2.32 2.32 0 0 0 .84 1.48 2.9 2.9 0 0 0 1 .51 6.06 6.06 0 0 0 1.8.26 5.37 5.37 0 0 0 1.45-.18 3.22 3.22 0 0 0 1.09-.53 2.71 2.71 0 0 0 .74-.8 2.81 2.81 0 0 0 .33-1 8.8 8.8 0 0 0 .08-1.18V6.1 4.3a9.37 9.37 0 0 1 .11-1.3.36.36 0 0 1 .12-.19 1.74 1.74 0 0 1 .74-.1V2.2l-1.38.04h-1.55v.48a2.57 2.57 0 0 1 .91.13.3.3 0 0 1 .15.15c.073.328.103.664.09 1v3.3a5 5 0 0 1-.22 1.84 1.75 1.75 0 0 1-.75.78 2.81 2.81 0 0 1-1.41.3 3.08 3.08 0 0 1-1.22-.22 1.69 1.69 0 0 1-.74-.59 2.09 2.09 0 0 1-.3-1V4.8a10.45 10.45 0 0 1 .04-1.74.31.31 0 0 1 .13-.22 1.93 1.93 0 0 1 .87-.12V2.2h-1.12l-.88.04-2-.04v.52l.83.09zm11.29 8.27h3.05v-.54h-.13a5.58 5.58 0 0 1-.6-.05.44.44 0 0 1-.21-.07.26.26 0 0 1-.09-.12 5 5 0 0 1-.08-.9V4.2c2.507 3.06 4.443 5.353 5.81 6.88l1.09.16.08-.05c-.06-.6-.09-2.307-.09-5.12V4.4a7.06 7.06 0 0 1 .09-1.46.16.16 0 0 1 .07-.1c.3-.094.616-.132.93-.11V2.2h-3v.53c.339-.03.68.015 1 .13a.45.45 0 0 1 .11.31c.053.4.08 1.733.08 4v1.47c-.587-.607-1.327-1.443-2.22-2.51a110.922 110.922 0 0 1-3.2-3.93h-2.69v.53c.271.01.542.036.81.08a.41.41 0 0 1 .2.1.47.47 0 0 1 .09.21c.016.2.016.4 0 .6V8.94c-.033.62-.063 1.01-.09 1.17a.56.56 0 0 1-.08.24.28.28 0 0 1-.12.08 7 7 0 0 1-.86.07v.54zM89 2.24h-1.83v.52c.267 0 .535.017.8.05a.31.31 0 0 1 .15.07.27.27 0 0 1 .06.13c.057.327.094.658.11.99V8.3c0 .433-.02.903-.06 1.41v.6a.2.2 0 0 1-.06.1.38.38 0 0 1-.18.07h-.76v.56h4.03v-.52a6 6 0 0 1-.76 0 .48.48 0 0 1-.21-.12.26.26 0 0 1-.09-.14 3.45 3.45 0 0 1-.06-.85V5.7 4.02 3.4a1.51 1.51 0 0 1 .05-.4.21.21 0 0 1 .1-.12.44.44 0 0 1 .17-.07 6.25 6.25 0 0 1 .77 0V2.2h-2.2zm10.14 8.88c.26-.72.753-1.953 1.48-3.7l.86-2 .45-1.05a6 6 0 0 1 .72-1.44 2.1 2.1 0 0 1 .72-.13v-.6H100.39v.56H101.32a.22.22 0 0 1 .09.08.31.31 0 0 1 0 .16.8.8 0 0 1 0 .15c-.04.173-.157.507-.35 1a73.78 73.78 0 0 1-.45 1.2L99.2 8.84 97.6 5v-.12l-.31-.61a5.69 5.69 0 0 1-.42-1.21.22.22 0 0 1 .05-.16.36.36 0 0 1 .19-.09 3.93 3.93 0 0 1 .77-.06V2.2h-4.13v.56a2.06 2.06 0 0 1 .79.11c.163.157.289.349.37.56.16.32.593 1.32 1.3 3l.9 2.15 1 2.53h1zm9.15-.12h3.08c.383.02.767.02 1.15 0l.08-.08a19.6 19.6 0 0 1 .14-2.07h-.45a6.68 6.68 0 0 1-.24 1.15.23.23 0 0 1-.08.11 2.05 2.05 0 0 1-.71.13H108.79V6.85a9.13 9.13 0 0 1 1 0 7.5 7.5 0 0 1 1.13.07c.11.01.208.07.27.16.095.293.129.603.1.91h.51V5.21h-.51a3.28 3.28 0 0 1-.09.8.24.24 0 0 1-.09.13 1.16 1.16 0 0 1-.4 0h-1.9V4.82a16.15 16.15 0 0 1 .09-1.83h1.15a11 11 0 0 1 1.23.07 1.5 1.5 0 0 1 .51.1.23.23 0 0 1 .08.13c.044.305.064.612.06.92h.49l.06-.92.12-.92v-.08l-.31-.09H105.83v.54c.31-.003.62.034.92.11a.2.2 0 0 1 .1.1c.07.288.1.584.09.88v4.09c0 .333-.017.863-.05 1.59 0 .4 0 .69-.06.86-.192.147-.4.27-.62.37v.34zm8.35-8.18a.23.23 0 0 1 .09.11c.068.329.095.665.08 1V7.6l-.05 1.85a5.77 5.77 0 0 1-.06.75.41.41 0 0 1-.05.18.2.2 0 0 1-.11.06 4.9 4.9 0 0 1-.85.07v.56h4.02v-.55a6.36 6.36 0 0 1-.74 0 .49.49 0 0 1-.18-.07.26.26 0 0 1-.08-.09 1.54 1.54 0 0 1-.07-.46V8.41v-2-2.4-1a3.59 3.59 0 0 1 .6-.05 3.21 3.21 0 0 1 1 .1c.28.106.52.294.69.54.2.294.299.645.28 1a2.06 2.06 0 0 1-.27 1 1.49 1.49 0 0 1-.65.65 2.61 2.61 0 0 1-1.15.16l-.07.21c.15.119.282.26.39.42.273.367.607.873 1 1.52l1.36 2.24c.065.113.115.234.15.36h2.42v-.64a1.25 1.25 0 0 1-.4-.05.65.65 0 0 1-.21-.16c-.073-.073-.267-.32-.58-.74l-.43-.63-1-1.47-.07-.12-.2-.35c-.13-.2-.26-.39-.36-.58a3.16 3.16 0 0 0 1.46-1c.313-.4.482-.893.48-1.4a1.74 1.74 0 0 0-.35-1.1 1.62 1.62 0 0 0-.84-.59 5.75 5.75 0 0 0-1.49-.14h-4.65v.53c.314.002.627.046.93.13zm16.39.63a7.37 7.37 0 0 1 .13-.81l-.05-.15a4.32 4.32 0 0 0-1.1-.35 7 7 0 0 0-1.3-.12 5.58 5.58 0 0 0-1.26.14 3.29 3.29 0 0 0-1.1.47 2.36 2.36 0 0 0-.79.93 2.9 2.9 0 0 0-.3 1.31 2.68 2.68 0 0 0 .17.95 2 2 0 0 0 .5.75c.252.226.554.39.88.48.24.073.743.19 1.51.35a4.93 4.93 0 0 1 1.12.36c.2.102.364.262.47.46.106.214.157.451.15.69a1.7 1.7 0 0 1-.21.85 1.42 1.42 0 0 1-.69.59 2.59 2.59 0 0 1-1.08.21 2.76 2.76 0 0 1-1.28-.3 2 2 0 0 1-.83-.69 7.94 7.94 0 0 1-.07-1.14h-.51a9.27 9.27 0 0 1-.2 2.2 6.63 6.63 0 0 0 1.34.5 6 6 0 0 0 1.39.15 4.92 4.92 0 0 0 1.83-.3c.34-.138.653-.33.93-.57a3.05 3.05 0 0 0 .71-.85c.233-.44.35-.932.34-1.43a2.67 2.67 0 0 0-.12-.83 2 2 0 0 0-.31-.62 1.73 1.73 0 0 0-.5-.43 3.26 3.26 0 0 0-.83-.32l-.85-.16-1-.19a2.81 2.81 0 0 1-.73-.28 1 1 0 0 1-.38-.41 1.54 1.54 0 0 1-.14-.68 1.34 1.34 0 0 1 .47-1 1.9 1.9 0 0 1 1.34-.44 2.66 2.66 0 0 1 1.09.22c.266.1.5.27.68.49.04.332.06.666.06 1h.53c0-.43 0-.78.06-1zm5.64-1.23h-1.83v.54a6.7 6.7 0 0 1 .8.05.31.31 0 0 1 .15.07.27.27 0 0 1 .06.13 8 8 0 0 1 .08 1V8.3c0 .433-.017.903-.05 1.41v.6a.2.2 0 0 1-.06.1.38.38 0 0 1-.18.07h-.76v.56h4.03v-.52a6 6 0 0 1-.76 0 .48.48 0 0 1-.19-.08.25.25 0 0 1-.09-.14 3.44 3.44 0 0 1-.06-.85V5.7 4.02 3.4a1.52 1.52 0 0 1 .08-.4.22.22 0 0 1 .07-.1.45.45 0 0 1 .17-.07 6.23 6.23 0 0 1 .76 0V2.2h-2.2zm8.84 8.78c.567 0 1.26.017 2.08.05v-.49a3 3 0 0 1-.91-.11.38.38 0 0 1-.19-.24 10.43 10.43 0 0 1-.07-1.65v-3.8-1.74h.91c.487 0 .903.017 1.25.05a.43.43 0 0 1 .2 0 .6.6 0 0 1 .08.27c.047.311.074.625.08.94h.52V2.89a6.52 6.52 0 0 1 .07-.68l-.06-.06H143.45l-.06.06c0 .213.02.413.06.6s.04.677 0 1.47h.52c.007-.335.04-.67.1-1a.42.42 0 0 1 .08-.22.55.55 0 0 1 .24-.05h2.12v5.54a10.3 10.3 0 0 1-.07 1.64.39.39 0 0 1-.19.25 3.12 3.12 0 0 1-.91.1v.52c.78-.033 1.473-.05 2.08-.05zm10.4-6.38a15.08 15.08 0 0 0-.92-1.58 4 4 0 0 0-.49-.63 2.89 2.89 0 0 0-.56-.41l-.7.17-1.35.27V3a2.13 2.13 0 0 1 .56 0c.168.116.319.254.45.41a10.2 10.2 0 0 1 1 1.38c.453.707.88 1.423 1.28 2.15a1.8 1.8 0 0 1 .24.6v2.44a.94.94 0 0 1-.07.38.3.3 0 0 1-.17.1 6.83 6.83 0 0 1-.85.06v.56h4.12v-.56a5.21 5.21 0 0 1-.84-.05.35.35 0 0 1-.19-.11 1.2 1.2 0 0 1-.1-.44c-.02-.39-.02-.78 0-1.17V7.66a2.59 2.59 0 0 1 0-.48c.04-.167.1-.328.18-.48.14-.267.507-.867 1.1-1.8s1.157-1.74 1.69-2.42V2.2h-1c-.06.12-.21.39-.44.79l-1.2 2.12-.8 1.29c-.1-.22-.397-.807-.89-1.76z" fill="#004b93" fill-rule="nonzero"/><g fill="#000"><path d="M36.21 30.38v-8.67h7.99v-5.72h-7.99v-8.1h8.77v3.14h5.79V2.22H27.59v5.67h2.18v22.49H27.6v5.72h10.7v-5.72zm-11.63-7.09V7.89h2.14V2.22H16.01v5.67h2.09v13.49c0 5.66-.65 8.37-4.71 8.37S8.67 27 8.67 21.38V7.89h2.07V2.22H0v5.67h2.13v15.4c0 3.37 0 6.12 1.59 8.6 1.77 2.8 5 4.59 9.66 4.59 8.26 0 11.2-4.31 11.2-13.19zM56.07 2.21v33.88h1.5V2.21z"/><path d="M169.09 11c.13.358.38.659.71.85.424.226.9.333 1.38.31a3.74 3.74 0 0 0 1.33-.22 6.17 6.17 0 0 0 1.23-.65 4.69 4.69 0 0 0 .94-.78 4.59 4.59 0 0 0 .74-1.46 6 6 0 0 0 .32-1.91 3.3 3.3 0 0 0-.12-.93 1.93 1.93 0 0 0-.39-.73 1.87 1.87 0 0 0-.79-.49 3.32 3.32 0 0 0-1.15-.19 3.56 3.56 0 0 0-1.42.29 5.47 5.47 0 0 0-1.23.73 5.18 5.18 0 0 0-.78.71 4.33 4.33 0 0 0-.66 1.41 6.36 6.36 0 0 0-.3 1.89 3.43 3.43 0 0 0 .2 1.18zm1.86-3.47a4 4 0 0 1 .74-1.66 1.34 1.34 0 0 1 1-.44 1.18 1.18 0 0 1 .93.4c.27.373.399.83.36 1.29a8.62 8.62 0 0 1-.31 2.21 5.51 5.51 0 0 1-.47 1.24 1.84 1.84 0 0 1-.56.65 1.28 1.28 0 0 1-.72.2 1.22 1.22 0 0 1-1-.39 2 2 0 0 1-.34-1.29 8.71 8.71 0 0 1 .33-2.23zm6.73-1.72h1l-1.06 5.47a23 23 0 0 1-.67 3 1.06 1.06 0 0 1-.31.49.64.64 0 0 1-.39.14.6.6 0 0 1-.4-.15 1.39 1.39 0 0 1-.33-.5h-.23c-.05.26-.11.51-.18.73s-.17.51-.3.88c.151.07.314.114.48.13.253-.006.5-.075.72-.2a4.94 4.94 0 0 0 1.4-1.18 6.38 6.38 0 0 0 1.11-1.85c.4-1.12.734-2.261 1-3.42l.77-3.54h1.87a4.7 4.7 0 0 1 .23-.76l-.07-.12a6.38 6.38 0 0 1-.71.07c-.527.033-.86.033-1 0h-.12a20.22 20.22 0 0 1 .43-1.95 2.67 2.67 0 0 1 .2-.54.75.75 0 0 1 .27-.28.67.67 0 0 1 .35-.1 1 1 0 0 1 .53.19c.24.176.444.396.6.65h.22a13.43 13.43 0 0 1 .41-1.87 1.68 1.68 0 0 0-.6-.12 1.8 1.8 0 0 0-.69.11 7.53 7.53 0 0 0-1 .67 14.67 14.67 0 0 0-1.42 1.16 3.1 3.1 0 0 0-.61.75 3.86 3.86 0 0 0-.26.86c0 .19-.07.31-.1.39a5.66 5.66 0 0 1-.79.28c-.32.093-.56.17-.72.23l-.07.37h.44zM76.07 22.3h-1.33a7.08 7.08 0 0 1-.17 1.7.47.47 0 0 1-.29.35 9.82 9.82 0 0 1-2.47.18c-.453 0-1.323-.037-2.61-.11v-2.08c0-2.62.057-4.43.17-5.43l1.59-.07h1.43a13.64 13.64 0 0 1 2.32.17 4 4 0 0 1 1.26.35.29.29 0 0 1 .14.15c.063.262.094.53.09.8.06.813.09 1.34.09 1.58h1.23c0-.667.047-1.443.14-2.33s.19-1.62.29-2.2l-.14-.21a26.18 26.18 0 0 0-2.9-.15l-7.28.14-5.34-.14v1.3c.6.023 1.197.08 1.79.17.153.024.299.078.43.16a.49.49 0 0 1 .14.25 7.61 7.61 0 0 1 .17 1.65c.093 2.667.14 4.08.14 4.24V29c0 .533-.027 1.413-.08 2.64s-.093 1.957-.12 2.19a1.87 1.87 0 0 1-.21.79.47.47 0 0 1-.23.17 10.22 10.22 0 0 1-2.03.21v1.25c1.86-.073 3.22-.11 4.08-.11l5.92.08V35a17.42 17.42 0 0 1-2.38-.25.71.71 0 0 1-.38-.26 5.51 5.51 0 0 1-.24-1.67c-.06-.96-.09-2.627-.09-5v-1.71h1.21c1.18-.026 2.36.04 3.53.2a.76.76 0 0 1 .54.29 7.18 7.18 0 0 1 .26 2.28h1.33zm8.42 13.78c.667 0 1.827.02 3.48.06l3.56.08c1.293 0 2.247-.027 2.86-.08a5.15 5.15 0 0 0 .9-.14c0-.193.047-.767.14-1.72l.38-3.06v-.5h-1.23c-.193.973-.39 1.847-.59 2.62a1.39 1.39 0 0 1-.26.56 1.88 1.88 0 0 1-.74.2 26.43 26.43 0 0 1-4 .27c-.507 0-1.457-.037-2.85-.11v-2.58-4.29-4.37c0-1.693.023-3.097.07-4.21a12.27 12.27 0 0 1 .08-1.88.53.53 0 0 1 .24-.3 6.89 6.89 0 0 1 2.09-.27V15c-1.647.073-3.387.11-5.22.11-1.647 0-3.11-.037-4.39-.11v1.33a6.79 6.79 0 0 1 2.32.3.47.47 0 0 1 .23.27c.15 1.08.214 2.17.19 3.26v5.91c0 2.173-.02 4.033-.06 5.58s-.087 2.447-.14 2.7a.36.36 0 0 1-.07.17 1.44 1.44 0 0 1-.41.3 9.88 9.88 0 0 1-1.1.59v.78c2-.093 3.503-.14 4.51-.14zm13.06-4.2a9.06 9.06 0 0 0 3.84 3.64 12.82 12.82 0 0 0 5.85 1.24 14.54 14.54 0 0 0 5.6-1 9.93 9.93 0 0 0 3.19-2.17 9.58 9.58 0 0 0 2.13-3.23 14 14 0 0 0 1-5.28 13 13 0 0 0-.37-3.08 9.81 9.81 0 0 0-1-2.56 9.47 9.47 0 0 0-4.89-4 15.28 15.28 0 0 0-5-.77 15.71 15.71 0 0 0-5.11.8A9.85 9.85 0 0 0 97 21a12.76 12.76 0 0 0-.84 4.83 11.82 11.82 0 0 0 1.39 6zm4-11.39a5.87 5.87 0 0 1 2.26-3.07 6.61 6.61 0 0 1 3.76-1 6.4 6.4 0 0 1 3.11.65 6.12 6.12 0 0 1 2 1.89 9.34 9.34 0 0 1 1.32 3 15.25 15.25 0 0 1 .46 3.88 14.37 14.37 0 0 1-.85 5.26 6 6 0 0 1-2.32 3.04 6.47 6.47 0 0 1-3.41.91 6.56 6.56 0 0 1-3.57-1 6.82 6.82 0 0 1-2.48-3.27 15.21 15.21 0 0 1-1-5.85 13.66 13.66 0 0 1 .7-4.49zm19.74-3.89a.57.57 0 0 1 .22.26 9.7 9.7 0 0 1 .18 2.27l.08 3.2v5.62l-.12 4.42a14.11 14.11 0 0 1-.15 1.79 1 1 0 0 1-.13.42.46.46 0 0 1-.26.15 11.4 11.4 0 0 1-2 .17v1.33c1.333-.073 2.79-.11 4.37-.11 1.767 0 3.51.037 5.23.11v-1.34a15.11 15.11 0 0 1-1.76-.09 1.18 1.18 0 0 1-.44-.16.62.62 0 0 1-.2-.22 3.58 3.58 0 0 1-.17-1.1c0-.28-.03-1.46-.09-3.54v-4.81c0-.96.03-2.867.09-5.72 0-1.273.03-2.093.09-2.46a8.54 8.54 0 0 1 1.44-.12 7.7 7.7 0 0 1 2.27.23 3.52 3.52 0 0 1 1.65 1.29c.466.682.7 1.495.67 2.32a4.93 4.93 0 0 1-.64 2.49 3.59 3.59 0 0 1-1.56 1.54 6.24 6.24 0 0 1-2.74.37l-.17.5c.362.284.679.621.94 1 .667.88 1.453 2.087 2.36 3.62l3.24 5.34c.157.27.278.559.36.86.8-.04 1.603-.06 2.41-.06.667 0 1.79.02 3.37.06v-1.34a3 3 0 0 1-1-.12 1.6 1.6 0 0 1-.5-.37c-.173-.18-.637-.77-1.39-1.77l-1-1.5-2.35-3.5-.17-.29c-.06-.1-.24-.38-.57-.86s-.61-.93-.86-1.38a7.56 7.56 0 0 0 3.5-2.38 5.39 5.39 0 0 0 1.14-3.33 4.15 4.15 0 0 0-.83-2.62 3.88 3.88 0 0 0-2-1.42 13.78 13.78 0 0 0-3.56-.34c-.82 0-1.853.03-3.1.09-.76.047-1.667.07-2.72.07h-2.88l-2.42-.07v1.2a8.55 8.55 0 0 1 2.22.3zm24.15-1.46c-1.647 0-3.107-.037-4.38-.11v1.33a16 16 0 0 1 1.92.13.75.75 0 0 1 .36.17.66.66 0 0 1 .15.3c.11.799.17 1.604.18 2.41v10.21c0 1.033-.04 2.153-.12 3.36-.05.83-.09 1.3-.12 1.42a.49.49 0 0 1-.14.24.9.9 0 0 1-.43.17c-.16 0-.767.037-1.82.11v1.33a76.478 76.478 0 0 1 4.35-.11c1.873 0 3.63.037 5.27.11v-1.32a14.41 14.41 0 0 1-1.81-.1 1.15 1.15 0 0 1-.46-.18.61.61 0 0 1-.21-.33 8.27 8.27 0 0 1-.15-2v-8.9c0-.193.02-1.527.06-4v-1.49a3.57 3.57 0 0 1 .15-1 .5.5 0 0 1 .17-.25 1.06 1.06 0 0 1 .41-.17 14.82 14.82 0 0 1 1.83-.11V15c-1.647.073-3.393.11-5.24.11zm11.71 21l4.49.11a17.7 17.7 0 0 0 5.22-.67 11.79 11.79 0 0 0 4-2.2 10.73 10.73 0 0 0 2.91-3.8 12.09 12.09 0 0 0 1.06-5.16 11.87 11.87 0 0 0-.71-4.18 7.21 7.21 0 0 0-1.25-2.12 8 8 0 0 0-2-1.7 8.78 8.78 0 0 0-2.81-1 22.57 22.57 0 0 0-4.29-.33c-.78 0-1.813.017-3.1.05-1.787.06-3.003.09-3.65.09l-5.45-.23v1.22c1.093.14 1.727.23 1.9.27a.77.77 0 0 1 .38.18.53.53 0 0 1 .12.21c.145.903.212 1.816.2 2.73.053 2.573.08 4.527.08 5.86V28c0 3.04-.057 5.237-.17 6.59-.32.243-.654.466-1 .67l-.42.24v.73l4.58-.11zm1.31-7.71v-3.5c0-3.96.053-6.653.16-8.08a18.17 18.17 0 0 1 2.57-.2 14.71 14.71 0 0 1 4.63.54 5.69 5.69 0 0 1 2.53 1.76 7.46 7.46 0 0 1 1.44 2.82 12.69 12.69 0 0 1 .44 3.34 13.59 13.59 0 0 1-.44 3.53 9.34 9.34 0 0 1-1.23 2.82 6.77 6.77 0 0 1-1.66 1.79 6.49 6.49 0 0 1-2 .92 13.63 13.63 0 0 1-3.57.42 16.32 16.32 0 0 1-2.69-.24c-.107-.96-.16-2.94-.16-5.94zm17.17 7.71l3.49.11V35a6.49 6.49 0 0 1-2.16-.27.56.56 0 0 1-.24-.51c.148-.89.4-1.759.75-2.59l.66-1.81h7.81l1.35 3.28c.185.391.303.81.35 1.24a.45.45 0 0 1-.23.43 8.8 8.8 0 0 1-2.12.23v1.25l5.31-.11 4.21.11V35l-.67-.07a4.7 4.7 0 0 1-.88-.11.9.9 0 0 1-.31-.18 1.46 1.46 0 0 1-.29-.39l-.61-1.39-.94-2.07-6.72-15.85h-2.16l-1.33 3.44-3.95 9.75a548.915 548.915 0 0 1-1.51 3.71 257.941 257.941 0 0 1-1 2.31 1.74 1.74 0 0 1-.34.45 1.08 1.08 0 0 1-.4.21c-.483.085-.97.138-1.46.16v1.25l3.47-.11zm6.36-15.94l3.24 7.8h-6.35l3.12-7.83zM63.08 2.81a.51.51 0 0 1 .21.19c.05.131.077.27.08.41v5.66a2.32 2.32 0 0 0 .84 1.48 2.9 2.9 0 0 0 1 .51 6.06 6.06 0 0 0 1.8.26 5.37 5.37 0 0 0 1.45-.18 3.22 3.22 0 0 0 1.09-.53 2.71 2.71 0 0 0 .74-.8 2.81 2.81 0 0 0 .33-1 8.8 8.8 0 0 0 .08-1.18V6.1 4.3a9.37 9.37 0 0 1 .11-1.3.36.36 0 0 1 .12-.19 1.74 1.74 0 0 1 .74-.1V2.2l-1.38.04h-1.55v.48a2.57 2.57 0 0 1 .91.13.3.3 0 0 1 .15.15c.073.328.103.664.09 1v3.3a5 5 0 0 1-.22 1.84 1.75 1.75 0 0 1-.75.78 2.81 2.81 0 0 1-1.41.3 3.08 3.08 0 0 1-1.22-.22 1.69 1.69 0 0 1-.74-.59 2.09 2.09 0 0 1-.3-1V4.8a10.45 10.45 0 0 1 .04-1.74.31.31 0 0 1 .13-.22 1.93 1.93 0 0 1 .87-.12V2.2h-1.12l-.88.04-2-.04v.52l.83.09zm11.29 8.27h3.05v-.54h-.13a5.58 5.58 0 0 1-.6-.05.44.44 0 0 1-.21-.07.26.26 0 0 1-.09-.12 5 5 0 0 1-.08-.9V4.2c2.507 3.06 4.443 5.353 5.81 6.88l1.09.16.08-.05c-.06-.6-.09-2.307-.09-5.12V4.4a7.06 7.06 0 0 1 .09-1.46.16.16 0 0 1 .07-.1c.3-.094.616-.132.93-.11V2.2h-3v.53c.339-.03.68.015 1 .13a.45.45 0 0 1 .11.31c.053.4.08 1.733.08 4v1.47c-.587-.607-1.327-1.443-2.22-2.51a110.922 110.922 0 0 1-3.2-3.93h-2.69v.53c.271.01.542.036.81.08a.41.41 0 0 1 .2.1.47.47 0 0 1 .09.21c.016.2.016.4 0 .6V8.94c-.033.62-.063 1.01-.09 1.17a.56.56 0 0 1-.08.24.28.28 0 0 1-.12.08 7 7 0 0 1-.86.07v.54zM89 2.24h-1.83v.52c.267 0 .535.017.8.05a.31.31 0 0 1 .15.07.27.27 0 0 1 .06.13c.057.327.094.658.11.99V8.3c0 .433-.02.903-.06 1.41v.6a.2.2 0 0 1-.06.1.38.38 0 0 1-.18.07h-.76v.56h4.03v-.52a6 6 0 0 1-.76 0 .48.48 0 0 1-.21-.12.26.26 0 0 1-.09-.14 3.45 3.45 0 0 1-.06-.85V5.7 4.02 3.4a1.51 1.51 0 0 1 .05-.4.21.21 0 0 1 .1-.12.44.44 0 0 1 .17-.07 6.25 6.25 0 0 1 .77 0V2.2h-2.2zm10.14 8.88c.26-.72.753-1.953 1.48-3.7l.86-2 .45-1.05a6 6 0 0 1 .72-1.44 2.1 2.1 0 0 1 .72-.13v-.6H100.39v.56H101.32a.22.22 0 0 1 .09.08.31.31 0 0 1 0 .16.8.8 0 0 1 0 .15c-.04.173-.157.507-.35 1a73.78 73.78 0 0 1-.45 1.2L99.2 8.84 97.6 5v-.12l-.31-.61a5.69 5.69 0 0 1-.42-1.21.22.22 0 0 1 .05-.16.36.36 0 0 1 .19-.09 3.93 3.93 0 0 1 .77-.06V2.2h-4.13v.56a2.06 2.06 0 0 1 .79.11c.163.157.289.349.37.56.16.32.593 1.32 1.3 3l.9 2.15 1 2.53h1zm9.15-.12h3.08c.383.02.767.02 1.15 0l.08-.08a19.6 19.6 0 0 1 .14-2.07h-.45a6.68 6.68 0 0 1-.24 1.15.23.23 0 0 1-.08.11 2.05 2.05 0 0 1-.71.13H108.79V6.85a9.13 9.13 0 0 1 1 0 7.5 7.5 0 0 1 1.13.07c.11.01.208.07.27.16.095.293.129.603.1.91h.51V5.21h-.51a3.28 3.28 0 0 1-.09.8.24.24 0 0 1-.09.13 1.16 1.16 0 0 1-.4 0h-1.9V4.82a16.15 16.15 0 0 1 .09-1.83h1.15a11 11 0 0 1 1.23.07 1.5 1.5 0 0 1 .51.1.23.23 0 0 1 .08.13c.044.305.064.612.06.92h.49l.06-.92.12-.92v-.08l-.31-.09H105.83v.54c.31-.003.62.034.92.11a.2.2 0 0 1 .1.1c.07.288.1.584.09.88v4.09c0 .333-.017.863-.05 1.59 0 .4 0 .69-.06.86-.192.147-.4.27-.62.37v.34zm8.35-8.18a.23.23 0 0 1 .09.11c.068.329.095.665.08 1V7.6l-.05 1.85a5.77 5.77 0 0 1-.06.75.41.41 0 0 1-.05.18.2.2 0 0 1-.11.06 4.9 4.9 0 0 1-.85.07v.56h4.02v-.55a6.36 6.36 0 0 1-.74 0 .49.49 0 0 1-.18-.07.26.26 0 0 1-.08-.09 1.54 1.54 0 0 1-.07-.46V8.41v-2-2.4-1a3.59 3.59 0 0 1 .6-.05 3.21 3.21 0 0 1 1 .1c.28.106.52.294.69.54.2.294.299.645.28 1a2.06 2.06 0 0 1-.27 1 1.49 1.49 0 0 1-.65.65 2.61 2.61 0 0 1-1.15.16l-.07.21c.15.119.282.26.39.42.273.367.607.873 1 1.52l1.36 2.24c.065.113.115.234.15.36h2.42v-.64a1.25 1.25 0 0 1-.4-.05.65.65 0 0 1-.21-.16c-.073-.073-.267-.32-.58-.74l-.43-.63-1-1.47-.07-.12-.2-.35c-.13-.2-.26-.39-.36-.58a3.16 3.16 0 0 0 1.46-1c.313-.4.482-.893.48-1.4a1.74 1.74 0 0 0-.35-1.1 1.62 1.62 0 0 0-.84-.59 5.75 5.75 0 0 0-1.49-.14h-4.65v.53c.314.002.627.046.93.13zm16.39.63a7.37 7.37 0 0 1 .13-.81l-.05-.15a4.32 4.32 0 0 0-1.1-.35 7 7 0 0 0-1.3-.12 5.58 5.58 0 0 0-1.26.14 3.29 3.29 0 0 0-1.1.47 2.36 2.36 0 0 0-.79.93 2.9 2.9 0 0 0-.3 1.31 2.68 2.68 0 0 0 .17.95 2 2 0 0 0 .5.75c.252.226.554.39.88.48.24.073.743.19 1.51.35a4.93 4.93 0 0 1 1.12.36c.2.102.364.262.47.46.106.214.157.451.15.69a1.7 1.7 0 0 1-.21.85 1.42 1.42 0 0 1-.69.59 2.59 2.59 0 0 1-1.08.21 2.76 2.76 0 0 1-1.28-.3 2 2 0 0 1-.83-.69 7.94 7.94 0 0 1-.07-1.14h-.51a9.27 9.27 0 0 1-.2 2.2 6.63 6.63 0 0 0 1.34.5 6 6 0 0 0 1.39.15 4.92 4.92 0 0 0 1.83-.3c.34-.138.653-.33.93-.57a3.05 3.05 0 0 0 .71-.85c.233-.44.35-.932.34-1.43a2.67 2.67 0 0 0-.12-.83 2 2 0 0 0-.31-.62 1.73 1.73 0 0 0-.5-.43 3.26 3.26 0 0 0-.83-.32l-.85-.16-1-.19a2.81 2.81 0 0 1-.73-.28 1 1 0 0 1-.38-.41 1.54 1.54 0 0 1-.14-.68 1.34 1.34 0 0 1 .47-1 1.9 1.9 0 0 1 1.34-.44 2.66 2.66 0 0 1 1.09.22c.266.1.5.27.68.49.04.332.06.666.06 1h.53c0-.43 0-.78.06-1zm5.64-1.23h-1.83v.54a6.7 6.7 0 0 1 .8.05.31.31 0 0 1 .15.07.27.27 0 0 1 .06.13 8 8 0 0 1 .08 1V8.3c0 .433-.017.903-.05 1.41v.6a.2.2 0 0 1-.06.1.38.38 0 0 1-.18.07h-.76v.56h4.03v-.52a6 6 0 0 1-.76 0 .48.48 0 0 1-.19-.08.25.25 0 0 1-.09-.14 3.44 3.44 0 0 1-.06-.85V5.7 4.02 3.4a1.52 1.52 0 0 1 .08-.4.22.22 0 0 1 .07-.1.45.45 0 0 1 .17-.07 6.23 6.23 0 0 1 .76 0V2.2h-2.2zm8.84 8.78c.567 0 1.26.017 2.08.05v-.49a3 3 0 0 1-.91-.11.38.38 0 0 1-.19-.24 10.43 10.43 0 0 1-.07-1.65v-3.8-1.74h.91c.487 0 .903.017 1.25.05a.43.43 0 0 1 .2 0 .6.6 0 0 1 .08.27c.047.311.074.625.08.94h.52V2.89a6.52 6.52 0 0 1 .07-.68l-.06-.06H143.45l-.06.06c0 .213.02.413.06.6s.04.677 0 1.47h.52c.007-.335.04-.67.1-1a.42.42 0 0 1 .08-.22.55.55 0 0 1 .24-.05h2.12v5.54a10.3 10.3 0 0 1-.07 1.64.39.39 0 0 1-.19.25 3.12 3.12 0 0 1-.91.1v.52c.78-.033 1.473-.05 2.08-.05zm10.4-6.38a15.08 15.08 0 0 0-.92-1.58 4 4 0 0 0-.49-.63 2.89 2.89 0 0 0-.56-.41l-.7.17-1.35.27V3a2.13 2.13 0 0 1 .56 0c.168.116.319.254.45.41a10.2 10.2 0 0 1 1 1.38c.453.707.88 1.423 1.28 2.15a1.8 1.8 0 0 1 .24.6v2.44a.94.94 0 0 1-.07.38.3.3 0 0 1-.17.1 6.83 6.83 0 0 1-.85.06v.56h4.12v-.56a5.21 5.21 0 0 1-.84-.05.35.35 0 0 1-.19-.11 1.2 1.2 0 0 1-.1-.44c-.02-.39-.02-.78 0-1.17V7.66a2.59 2.59 0 0 1 0-.48c.04-.167.1-.328.18-.48.14-.267.507-.867 1.1-1.8s1.157-1.74 1.69-2.42V2.2h-1c-.06.12-.21.39-.44.79l-1.2 2.12-.8 1.29c-.1-.22-.397-.807-.89-1.76z" fill-rule="nonzero"/><path d="M36.21 30.38v-8.67h7.99v-5.72h-7.99v-8.1h8.77v3.14h5.79V2.22H27.59v5.67h2.18v22.49H27.6v5.72h10.7v-5.72zm-11.63-7.09V7.89h2.14V2.22H16.01v5.67h2.09v13.49c0 5.66-.65 8.37-4.71 8.37S8.67 27 8.67 21.38V7.89h2.07V2.22H0v5.67h2.13v15.4c0 3.37 0 6.12 1.59 8.6 1.77 2.8 5 4.59 9.66 4.59 8.26 0 11.2-4.31 11.2-13.19z"/></g></g></svg>
