<svg width="399" height="135" viewBox="0 0 399 135" xmlns="http://www.w3.org/2000/svg"><title>world-bicycle-relief</title><g transform="translate(-1 -2)" fill="none" fill-rule="evenodd"><path d="M119.124 71.24l3.796-6.13c8.759-13.723 26.277-30.074 48.175-36.789-11.387 9.343-21.314 21.606-28.321 36.788l-2.628 6.132c-3.212 8.175-6.131 18.686-7.3 29.489h6.424c1.168-10.22 3.796-21.022 7.591-29.49l2.92-6.13c7.883-15.767 20.438-30.365 37.08-40-6.423 10.51-13.43 28.029-16.35 40l-1.46 6.13c-1.46 5.84-3.504 18.979-4.087 29.49h6.423c.876-10.511 2.628-22.774 4.38-29.49l1.46-6.13c3.795-13.723 10.802-30.074 17.81-40.584v76.496h6.423V24.526c7.007 10.51 14.014 26.86 17.81 40.583l1.46 6.132c1.752 6.715 3.504 19.27 4.38 29.489h6.423c-.876-10.511-2.628-23.65-4.38-29.49l-1.46-6.13c-2.92-11.971-9.927-29.49-16.35-40 16.642 9.635 28.905 24.233 37.08 40l2.92 6.13c3.796 8.468 6.423 19.27 7.591 29.49h6.716c0-.292-.292-.584-.292-.876-1.168-10.51-4.088-20.73-7.3-28.613l-2.627-6.132c-7.008-14.89-16.643-27.445-28.322-36.788 21.898 6.715 39.417 22.774 48.176 36.788l3.795 6.132c4.964 9.051 8.175 19.27 9.927 29.489h6.424c-6.424-47.007-46.424-82.92-95.183-82.92-48.759 0-88.759 36.205-95.182 82.92h6.423c1.168-10.22 4.672-20.438 9.635-29.49z"/><path d="M197.956 11.387c52.263 0 95.183 39.124 101.606 89.343h9.051c.292-.584.292-1.46.292-2.044l-1.46-8.759c-.292-2.044-2.336-3.504-4.087-3.212h-.292c-.292-.876-.292-1.751-.584-2.335h.292c1.752-.584 2.627-2.92 2.044-4.672l-2.92-8.467c-.584-2.044-2.628-2.92-4.672-2.336h-.292c-.292-.876-.584-1.46-1.168-2.336h.292c1.752-.876 2.336-3.211 1.168-4.963l-4.38-7.591c-1.167-1.752-3.211-2.628-4.963-1.46-.584-.584-.876-1.46-1.46-2.044 1.46-1.168 1.752-3.504.292-5.256l-5.84-6.715c-1.459-1.46-3.503-1.752-5.255-.584l-1.751-1.752c1.167-1.46.876-3.795-.584-5.255l-6.716-5.84c-1.46-1.46-3.795-1.167-5.255.292-.584-.583-1.46-.875-2.044-1.46.876-1.751.292-3.795-1.46-4.963l-7.591-4.38c-1.752-1.167-4.088-.583-4.964 1.168-.875-.292-1.46-.584-2.335-1.167.584-1.752-.584-3.796-2.336-4.38l-8.467-2.92c-2.044-.584-4.088.292-4.672 2.044-.876-.292-1.752-.584-2.336-.584.292-1.752-1.167-3.504-3.211-4.087l-8.76-1.46c-2.043-.292-3.795.876-4.379 2.627-.876 0-1.752-.292-2.628-.292 0-1.751-1.751-3.503-3.795-3.503h-9.051c-2.044 0-3.796 1.46-3.796 3.503-.876 0-1.752 0-2.628.292-.292-1.751-2.335-2.92-4.38-2.627l-8.758 1.46c-2.044.292-3.504 2.043-3.212 4.087-.876.292-1.752.292-2.336.584-.584-1.752-2.92-2.628-4.671-2.044l-8.468 2.92c-2.043.584-2.92 2.628-2.335 4.38-.876.292-1.46.583-2.336 1.167-.876-1.751-3.212-2.043-4.964-1.167l-7.59 4.38c-1.753 1.167-2.337 3.21-1.46 4.963-.585.584-1.46.876-2.044 1.46-1.168-1.46-3.504-1.46-5.256-.293l-6.715 5.84c-1.46 1.46-1.752 3.504-.584 5.255L120 37.956c-1.46-1.168-3.796-.876-5.255.584l-5.84 6.715c-1.46 1.46-1.168 3.796.292 5.256-.584.584-.876 1.46-1.46 2.044-1.752-.876-3.795-.292-4.963 1.46l-4.38 7.59c-1.168 1.753-.584 4.088 1.168 4.964h.292c-.292.876-.584 1.46-1.168 2.336h-.292c-1.752-.584-3.795.292-4.671 2.336l-2.92 8.467c-.584 2.044.292 4.088 2.044 4.672h.292c-.292.875-.292 1.46-.584 2.335h-.292c-2.044-.292-3.796 1.168-4.088 3.212l-1.46 8.76c0 .583 0 1.459.292 2.043h9.051c6.716-50.511 49.927-89.343 101.898-89.343z" fill="#000" fill-rule="nonzero"/><path d="M197.956 11.387c-52.263 0-95.182 39.124-101.606 89.343h6.424c6.423-47.007 46.423-82.92 95.182-82.92 48.76 0 88.76 36.205 95.183 82.92h6.423c-6.423-50.511-49.343-89.343-101.606-89.343z" fill="#000" fill-rule="nonzero"/><path d="M177.226 64.818l-1.46 6.13c-1.751 6.716-3.503 19.271-4.38 29.49h23.65V23.942c-7.007 10.803-14.014 27.445-17.81 40.876zm41.752 0c-3.796-13.723-10.803-30.073-17.81-40.584v76.496h23.65c-.876-10.511-2.628-22.774-4.38-29.49l-1.46-6.422zm27.153 0c-7.883-15.767-20.438-30.365-37.08-40 6.423 10.51 13.43 28.029 16.35 40l1.46 6.13c1.752 5.84 3.504 18.979 4.38 29.49h25.401c-1.168-10.219-3.795-21.022-7.59-29.49l-2.92-6.13z" fill="#000" fill-rule="nonzero"/><path d="M273.285 64.818c-8.76-13.723-26.278-30.073-48.176-36.789 11.387 9.343 21.314 21.606 28.322 36.789l2.627 6.13c3.212 7.884 5.84 18.103 7.3 28.614 0 .292.292.584.292.876h23.357c-1.46-10.219-4.671-20.438-9.927-29.49l-3.795-6.13zm-102.774 0c2.92-11.971 10.219-29.49 16.35-40-16.642 9.635-28.905 24.233-37.08 40l-2.92 6.13c-3.795 8.468-6.423 19.271-7.59 29.49h25.4c.876-10.511 2.628-23.65 4.088-29.49l1.752-6.13z" fill="#000" fill-rule="nonzero"/><path d="M142.774 64.818c7.007-14.891 16.642-27.446 28.32-36.789-21.897 6.716-39.415 22.774-48.174 36.789l-3.796 6.13c-4.963 9.052-8.175 19.271-9.635 29.49h23.65c1.168-11.095 4.087-21.606 7.299-29.49l2.336-6.13z" fill="#000" fill-rule="nonzero"/><path fill="#000" fill-rule="nonzero" d="M2.33576642 136.058394L1.16788321 113.868613 6.13138686 113.868613 6.42335766 130.80292 15.4744526 113.868613 21.0218978 113.868613 21.3138686 130.80292 30.6569343 113.868613 35.3284672 113.868613 22.4817518 136.058394 16.6423358 136.058394 16.6423358 119.708029 7.88321168 136.058394z"/><path d="M55.474 124.964c-1.751 6.715-5.839 11.386-14.306 11.386-7.591 0-9.927-3.795-7.883-11.678 2.335-8.76 7.883-11.387 14.306-11.387 5.84.292 10.511 2.335 7.883 11.679zm-13.43 7.59c4.38 0 7.007-3.21 8.175-7.59.876-3.212 1.46-7.592-3.796-7.592-4.087 0-6.715 2.92-8.175 7.592-1.168 4.087-.876 7.59 3.796 7.59zm13.43 3.504l6.132-22.19h11.387c5.255 0 7.299 1.752 5.84 6.716-.877 3.212-2.92 5.547-6.132 6.131l2.92 9.343h-5.256l-2.628-8.759H62.19l-2.336 8.76h-4.38zm9.635-18.102l-1.46 5.548h5.548c3.212 0 4.38-.584 4.964-2.92.292-1.46.875-2.628-3.504-2.628h-5.548zm28.03 18.102h-5.84c-5.547 0-9.05-1.167-6.715-9.05l3.796-13.14h4.671l-3.504 12.263c-1.167 4.38-1.751 6.424 3.212 6.424h5.548l-1.168 3.503zm2.335 0l6.132-22.19h10.219c7.3 0 9.343 3.796 7.3 11.387-1.46 4.964-4.38 10.511-13.14 10.511h-10.51v.292zm9.927-18.394l-4.087 14.307h5.255c3.796 0 5.548-.876 7.3-7.3 1.46-4.963 1.167-7.299-3.504-7.299h-4.964v.292zm25.694 18.394l6.131-22.19h11.387c3.796 0 8.175.293 6.423 6.132-.583 2.044-2.043 3.796-4.671 4.964 1.46.875 2.628 2.043 2.044 4.963-1.46 4.964-4.964 6.131-9.051 6.131h-12.263zm9.927-18.102l-1.46 4.964h6.715c1.752 0 3.212-.584 3.796-2.628.584-1.752-.292-2.628-2.336-2.628l-6.715.292zm-4.088 14.015h6.716c1.46 0 3.211-.292 3.795-2.628.584-1.752-.292-2.628-2.336-2.628h-6.715l-1.46 5.256z" fill="#000" fill-rule="nonzero"/><path fill="#000" fill-rule="nonzero" d="M165.547445 113.868613L159.416058 136.058394 154.452555 136.058394 160.583942 113.868613z"/><path d="M185.693 117.664h-7.59c-3.212 0-5.84 1.752-7.592 8.175-1.752 6.132.584 6.424 3.796 6.424h7.59l-1.167 3.795h-7.883c-7.008 0-9.343-3.795-7.3-10.51 1.752-6.716 5.548-11.387 13.723-11.387h7.591l-1.168 3.503z" fill="#000" fill-rule="nonzero"/><path fill="#000" fill-rule="nonzero" d="M191.532847 126.131387L186.861314 113.868613 192.116788 113.868613 195.328467 122.335766 203.211679 113.868613 208.467153 113.868613 196.49635 126.131387 193.868613 135.766423 189.19708 135.766423z"/><path d="M225.11 117.664h-7.592c-3.211 0-5.84 1.752-7.591 8.175-1.752 6.132.584 6.424 3.504 6.424h7.59l-1.167 3.795h-7.883c-7.007 0-9.343-3.795-7.3-10.51 1.752-6.716 5.548-11.387 13.723-11.387h7.591l-.876 3.503zm12.846 18.394h-5.84c-5.547 0-9.05-1.167-6.715-9.05l3.796-13.14h4.672l-3.504 12.263c-1.168 4.38-1.752 6.424 3.212 6.424h5.547l-1.168 3.503zm24.234-18.394h-7.591c-3.212 0-5.548 1.752-6.716 5.256h12.847l-1.168 3.795h-12.847c-1.168 4.088.292 5.548 3.796 5.548h7.591l-1.168 3.795h-7.883c-7.007 0-9.343-3.795-7.3-10.51 1.753-6.716 5.548-11.387 13.723-11.387h7.592l-.876 3.503zm11.095 18.394l6.131-22.19h11.387c5.255 0 7.3 1.752 5.84 6.716-.877 3.212-2.92 5.547-6.132 6.131l2.92 9.343h-5.256l-2.628-8.759h-5.255l-2.336 8.76h-4.671zm9.635-18.102l-1.46 5.548h5.547c3.212 0 4.38-.584 4.964-2.92.292-1.46.876-2.628-3.504-2.628h-5.547zm35.036-.292h-7.591c-3.212 0-5.547 1.752-6.715 5.256h12.846l-1.168 3.795h-12.846c-1.168 4.088.292 5.548 3.795 5.548h7.592l-1.168 3.795h-7.883c-7.008 0-9.344-3.795-7.3-10.51 1.752-6.716 5.548-11.387 13.723-11.387h7.591l-.876 3.503zm13.723 18.394h-5.84c-5.547 0-9.05-1.167-6.715-9.05l3.796-13.14h4.671l-3.503 12.263c-1.168 4.38-1.752 6.424 3.211 6.424h5.548l-1.168 3.503z" fill="#000" fill-rule="nonzero"/><path fill="#000" fill-rule="nonzero" d="M345.109489 113.868613L338.978102 136.058394 334.014599 136.058394 340.145985 113.868613z"/><path d="M365.547 117.664h-7.59c-3.212 0-5.548 1.752-6.716 5.256h12.847l-1.168 3.795h-12.847c-1.168 4.088.292 5.548 3.796 5.548h7.59l-1.167 3.795h-7.883c-7.008 0-9.343-3.795-7.3-10.51 1.752-6.716 5.548-11.387 13.723-11.387h7.591l-.876 3.503zm-1.167 18.394l2.92-10.219c2.919-10.803 7.299-11.97 14.306-11.97h7.007l-1.168 3.795h-7.591c-3.796 0-5.84 1.168-7.3 5.548h13.14l-1.168 3.795h-13.14l-2.627 9.051h-4.38zm30.948-24.525c2.336 0 4.38 2.044 4.38 4.38 0 2.335-2.044 4.379-4.38 4.379-2.335 0-4.38-2.044-4.38-4.38 0-2.627 1.753-4.38 4.38-4.38zm0 .584c-2.043 0-3.503 1.752-3.503 3.795 0 2.044 1.46 3.796 3.503 3.796 2.044 0 3.504-1.752 3.504-3.796 0-2.043-1.752-3.795-3.504-3.795zm-.875 6.131h-.876v-4.963h1.46c.875 0 1.167.292 1.46.292.291.292.583.584.583.876 0 .583-.292 1.167-.876 1.167.292 0 .584.584.876 1.168 0 .876.292 1.168.292 1.168h-.876c0-.292-.292-.584-.292-1.168s-.292-.876-1.168-.876h-.583v2.336zm0-2.628h.583c.584 0 1.168-.292 1.168-.875 0-.292-.292-.876-1.168-.876h-.583v1.751z" fill="#000" fill-rule="nonzero"/></g></svg>
